<?xml version="1.0" encoding="iso-8859-1"?>
<!-- Generator: Adobe Illustrator 19.0.0, SVG Export Plug-In . SVG Version: 6.00 Build 0)  -->
<svg version="1.1" id="Layer_1" xmlns="http://www.w3.org/2000/svg" xmlns:xlink="http://www.w3.org/1999/xlink" x="0px" y="0px"
	 viewBox="0 0 512 512" style="enable-background:new 0 0 512 512; fill:#E6828C" xml:space="preserve">
<g>
	<g>
		<path d="M336.816,231.121c2.651-3.661,4.234-8.146,4.234-13.001v-20.411c0-2.929-1.556-5.487-3.882-6.913L358.43,59.131
			c0.068-0.427,0.104-0.86,0.104-1.293V8.112c0-4.481-3.631-8.112-8.112-8.112h-42.456c-4.481,0-8.112,3.631-8.112,8.112v4.49
			c-0.011,0.008-0.022,0.015-0.032,0.023c-0.225,0.146-0.486,0.297-0.774,0.451c-0.037,0.019-0.071,0.039-0.109,0.058
			c-0.293,0.153-0.62,0.308-0.975,0.466c-0.051,0.023-0.101,0.045-0.153,0.068c-0.358,0.156-0.747,0.315-1.165,0.474
			c-0.068,0.026-0.136,0.052-0.207,0.079c-0.423,0.158-0.875,0.318-1.354,0.477c-0.081,0.027-0.163,0.054-0.247,0.081
			c-0.487,0.159-1.004,0.318-1.547,0.476c-0.096,0.028-0.194,0.056-0.291,0.083c-0.551,0.158-1.129,0.314-1.735,0.468
			c-0.108,0.028-0.22,0.055-0.33,0.083c-0.617,0.155-1.259,0.306-1.93,0.456c-0.118,0.026-0.238,0.052-0.358,0.079
			c-0.684,0.149-1.392,0.296-2.13,0.439c-0.124,0.024-0.252,0.048-0.377,0.071c-0.753,0.143-1.529,0.282-2.336,0.416
			c-0.128,0.022-0.257,0.042-0.386,0.063c-0.824,0.134-1.673,0.264-2.554,0.387c-0.123,0.017-0.251,0.034-0.375,0.051
			c-0.901,0.123-1.826,0.242-2.783,0.353c-0.117,0.013-0.237,0.026-0.355,0.039c-0.979,0.11-1.983,0.214-3.018,0.309
			c-0.107,0.01-0.217,0.018-0.326,0.028c-1.06,0.094-2.145,0.181-3.262,0.257c-0.09,0.007-0.183,0.011-0.274,0.017
			c-1.147,0.076-2.319,0.143-3.525,0.197c-0.067,0.003-0.135,0.005-0.202,0.008c-1.237,0.054-2.503,0.097-3.802,0.127
			c-0.038,0.001-0.076,0.001-0.114,0.002c-1.334,0.029-2.696,0.045-4.094,0.045h-5.472c-1.397,0-2.76-0.016-4.094-0.045
			c-0.038-0.001-0.076-0.001-0.114-0.002c-1.299-0.029-2.565-0.073-3.802-0.127c-0.067-0.003-0.135-0.005-0.202-0.008
			c-1.209-0.054-2.385-0.121-3.534-0.197c-0.087-0.005-0.175-0.011-0.261-0.016c-1.127-0.077-2.221-0.163-3.289-0.26
			c-0.096-0.009-0.196-0.016-0.292-0.025c-1.047-0.095-2.062-0.2-3.05-0.313c-0.107-0.012-0.216-0.023-0.322-0.036
			c-0.97-0.111-1.909-0.231-2.822-0.357c-0.11-0.015-0.222-0.03-0.331-0.045c-0.898-0.125-1.764-0.259-2.605-0.395
			c-0.109-0.017-0.22-0.035-0.327-0.053c-0.829-0.137-1.627-0.28-2.398-0.427c-0.104-0.019-0.209-0.039-0.313-0.06
			c-0.76-0.147-1.489-0.299-2.192-0.452c-0.098-0.022-0.198-0.043-0.296-0.065c-0.691-0.155-1.353-0.312-1.987-0.471
			c-0.092-0.023-0.184-0.045-0.274-0.069c-0.624-0.159-1.22-0.32-1.786-0.482c-0.081-0.023-0.162-0.047-0.242-0.069
			c-0.559-0.163-1.09-0.327-1.59-0.49c-0.069-0.023-0.137-0.045-0.206-0.068c-0.493-0.163-0.957-0.328-1.39-0.49
			c-0.06-0.023-0.117-0.044-0.175-0.067c-0.427-0.163-0.825-0.326-1.191-0.485c-0.044-0.019-0.088-0.039-0.132-0.058
			c-0.361-0.16-0.692-0.319-0.99-0.474c-0.035-0.018-0.067-0.036-0.101-0.053c-0.292-0.156-0.554-0.307-0.78-0.454
			c-0.011-0.008-0.022-0.015-0.032-0.022v-4.49c0-4.481-3.631-8.112-8.112-8.112h-42.456c-4.481,0-8.112,3.631-8.112,8.112v49.726
			c0,0.433,0.035,0.866,0.104,1.293l21.264,131.665c-2.326,1.427-3.882,3.985-3.882,6.913v20.411c0,4.855,1.582,9.339,4.232,13
			c-28.686,49.238-45.055,121.618-45.055,199.984c0,25.133,1.716,50.003,5.098,73.92c0.566,4.002,3.991,6.977,8.032,6.977h225.487
			c4.041,0,7.466-2.974,8.032-6.977c3.382-23.916,5.098-48.786,5.098-73.92C381.872,352.737,365.503,280.359,336.816,231.121z
			 M212.146,30.236c0.532,0.178,1.075,0.349,1.621,0.516c0.175,0.053,0.352,0.105,0.528,0.158c0.575,0.171,1.156,0.336,1.746,0.494
			c0.098,0.026,0.196,0.053,0.294,0.079c0.599,0.158,1.205,0.308,1.815,0.454c0.176,0.042,0.353,0.084,0.53,0.127
			c0.633,0.147,1.27,0.29,1.911,0.425c0.158,0.034,0.317,0.065,0.475,0.097c0.571,0.118,1.145,0.23,1.721,0.339
			c0.135,0.026,0.27,0.052,0.407,0.078c0.66,0.121,1.321,0.236,1.984,0.345c0.177,0.029,0.355,0.058,0.532,0.087
			c0.67,0.108,1.34,0.213,2.01,0.309c0.079,0.011,0.158,0.022,0.237,0.034c0.627,0.09,1.253,0.174,1.877,0.255
			c0.16,0.021,0.32,0.042,0.48,0.062c0.661,0.083,1.319,0.161,1.974,0.235c0.15,0.017,0.301,0.032,0.451,0.049
			c0.604,0.066,1.204,0.129,1.8,0.187c0.093,0.01,0.186,0.019,0.279,0.028c0.659,0.064,1.31,0.121,1.956,0.176
			c0.154,0.013,0.306,0.026,0.459,0.038c0.641,0.053,1.277,0.103,1.904,0.147c0.078,0.005,0.155,0.011,0.233,0.016
			c0.582,0.041,1.156,0.079,1.722,0.112c0.123,0.008,0.247,0.015,0.369,0.023c0.599,0.036,1.188,0.067,1.766,0.096
			c0.127,0.006,0.251,0.012,0.376,0.018c0.547,0.026,1.086,0.051,1.611,0.073c0.049,0.002,0.098,0.004,0.146,0.006
			c0.56,0.023,1.102,0.041,1.633,0.057c0.117,0.003,0.233,0.008,0.348,0.011c0.515,0.015,1.017,0.029,1.501,0.04
			c0.076,0.002,0.148,0.003,0.223,0.004c0.451,0.01,0.887,0.018,1.308,0.024c0.067,0.001,0.136,0.002,0.203,0.003
			c0.449,0.006,0.876,0.011,1.286,0.014c0.085,0.001,0.167,0.001,0.251,0.001c0.403,0.002,0.794,0.004,1.155,0.004h5.469v0.001
			c0.361,0,0.752-0.001,1.155-0.004c0.083,0,0.165-0.001,0.251-0.001c0.41-0.003,0.837-0.008,1.286-0.014
			c0.067-0.001,0.135-0.002,0.203-0.003c0.421-0.006,0.857-0.014,1.308-0.024c0.076-0.001,0.147-0.002,0.223-0.004
			c0.484-0.011,0.986-0.025,1.501-0.04c0.115-0.003,0.23-0.008,0.347-0.011c0.531-0.017,1.073-0.036,1.633-0.057
			c0.048-0.002,0.098-0.004,0.146-0.006c0.525-0.022,1.063-0.045,1.611-0.072c0.125-0.007,0.25-0.012,0.376-0.018
			c0.579-0.029,1.167-0.061,1.766-0.096c0.121-0.008,0.244-0.015,0.367-0.023c0.567-0.035,1.14-0.072,1.723-0.112
			c0.078-0.005,0.154-0.011,0.233-0.016c0.626-0.044,1.262-0.094,1.905-0.147c0.153-0.012,0.304-0.025,0.458-0.038
			c0.647-0.055,1.298-0.112,1.958-0.176c0.092-0.009,0.184-0.018,0.276-0.028c0.597-0.058,1.198-0.121,1.803-0.187
			c0.149-0.016,0.299-0.032,0.449-0.049c0.655-0.074,1.313-0.151,1.975-0.235c0.16-0.021,0.319-0.041,0.479-0.062
			c0.625-0.081,1.251-0.166,1.88-0.255c0.078-0.011,0.156-0.022,0.234-0.032c0.671-0.097,1.341-0.202,2.012-0.31
			c0.177-0.028,0.354-0.057,0.53-0.087c0.662-0.11,1.324-0.224,1.984-0.346c0.136-0.025,0.273-0.052,0.409-0.078
			c0.575-0.108,1.148-0.221,1.719-0.339c0.159-0.032,0.318-0.064,0.476-0.097c0.641-0.135,1.279-0.277,1.912-0.425
			c0.176-0.041,0.353-0.083,0.529-0.125c0.61-0.146,1.216-0.296,1.815-0.455c0.098-0.026,0.196-0.052,0.293-0.079
			c0.59-0.158,1.17-0.325,1.747-0.494c0.176-0.052,0.352-0.104,0.527-0.158c0.547-0.167,1.089-0.337,1.622-0.516v2.05
			c0,22.673-18.446,41.119-41.118,41.119h-5.472c-22.672,0-41.118-18.446-41.118-41.119V30.236z M169.69,57.187V16.224h26.232
			v16.062c0,31.618,25.723,57.344,57.343,57.344h5.472c31.618,0,57.343-25.724,57.343-57.344V16.224h26.232v40.962l-21.384,132.409
			h-16.232c-4.481,0-8.112,3.631-8.112,8.112s3.631,8.112,8.112,8.112h20.129v12.299c0,2.108-1.091,3.963-2.738,5.038
			c-0.207,0.135-0.421,0.253-0.64,0.361c-0.054,0.026-0.107,0.053-0.162,0.078c-0.237,0.107-0.478,0.203-0.726,0.278
			c-0.028,0.009-0.058,0.014-0.086,0.023c-0.224,0.065-0.451,0.114-0.681,0.152c-0.066,0.011-0.132,0.022-0.199,0.03
			c-0.26,0.035-0.522,0.057-0.787,0.057h-125.61c-0.265,0-0.528-0.023-0.787-0.057c-0.067-0.009-0.133-0.02-0.2-0.03
			c-0.229-0.038-0.458-0.088-0.68-0.151c-0.029-0.009-0.06-0.014-0.088-0.023c-0.247-0.076-0.488-0.171-0.724-0.278
			c-0.056-0.026-0.111-0.053-0.168-0.081c-0.216-0.107-0.428-0.224-0.633-0.357c-1.647-1.075-2.741-2.931-2.741-5.04V205.82h6.019
			h85.182c4.481,0,8.112-3.631,8.112-8.112s-3.631-8.112-8.112-8.112h-85.182h-2.121L169.69,57.187z M361.645,495.776h-211.29
			c-2.658-21.014-4.003-42.733-4.003-64.672c0-74.104,15.798-144.872,42.47-191.173c0.392,0.078,0.791,0.12,1.187,0.177
			c0.318,0.045,0.63,0.109,0.952,0.142c0.74,0.075,1.485,0.112,2.235,0.112h125.611c0.75,0,1.495-0.039,2.234-0.112
			c0.332-0.034,0.654-0.098,0.982-0.147c0.385-0.056,0.774-0.096,1.155-0.172c26.672,46.303,42.471,117.068,42.471,191.173
			C365.648,453.044,364.302,474.763,361.645,495.776z"/>
	</g>
</g>
<g>
</g>
<g>
</g>
<g>
</g>
<g>
</g>
<g>
</g>
<g>
</g>
<g>
</g>
<g>
</g>
<g>
</g>
<g>
</g>
<g>
</g>
<g>
</g>
<g>
</g>
<g>
</g>
<g>
</g>
</svg>
