<?xml version="1.0" encoding="iso-8859-1"?>
<!-- Generator: Adobe Illustrator 19.0.0, SVG Export Plug-In . SVG Version: 6.00 Build 0)  -->
<svg version="1.1" id="Capa_1" xmlns="http://www.w3.org/2000/svg" xmlns:xlink="http://www.w3.org/1999/xlink" x="0px" y="0px"
	 viewBox="0 0 512 512" style="enable-background:new 0 0 512 512; fill:#6D4F2D" xml:space="preserve">
<g>
	<g>
		<path d="M381.919,107.826l-88.01-10.637c-34.595-4.181-69.702,4.046-98.839,23.169c-29.137,19.122-50.654,48.051-60.584,81.459
			l-24.691,83.059L5.129,341.966c-2.891,1.577-4.801,4.495-5.091,7.776c-0.288,3.28,1.084,6.488,3.655,8.545
			c44.614,35.691,98.379,55.554,155.481,57.441c2.976,0.098,5.94,0.148,8.904,0.148c53.898,0,105.6-16.234,150.029-47.2
			l58.407-40.707l124.274,12.747c0.336,0.034,0.671,0.051,1.005,0.051c2.416,0,4.761-0.889,6.575-2.52
			c2.065-1.856,3.251-4.496,3.264-7.272l0.366-75.683C512.362,180.227,456.439,116.832,381.919,107.826z M306.857,352.53
			c-83.626,58.284-196.192,57.435-278.876-0.615l92.12-50.247l226.413,23.222L306.857,352.53z M492.007,320.031l-361.124-37.038
			l6.199-20.852l68.574,7.394c0.358,0.038,0.715,0.058,1.068,0.058c4.96,0,9.226-3.741,9.77-8.785
			c0.582-5.403-3.325-10.254-8.727-10.838l-64.983-7.007l10.564-35.538c17.858-60.074,75.977-98.217,138.201-90.7l88.01,10.637
			c64.599,7.807,113.078,62.762,112.763,127.831L492.007,320.031z"/>
	</g>
</g>
<g>
	<g>
		<path d="M237.19,253.141l-0.076-0.008c-5.411-0.589-10.216,3.331-10.797,8.734s3.366,10.257,8.769,10.839
			c0.357,0.039,0.712,0.058,1.065,0.058c4.961,0,9.227-3.743,9.77-8.787C246.502,258.574,242.593,253.723,237.19,253.141z"/>
	</g>
</g>
<g>
</g>
<g>
</g>
<g>
</g>
<g>
</g>
<g>
</g>
<g>
</g>
<g>
</g>
<g>
</g>
<g>
</g>
<g>
</g>
<g>
</g>
<g>
</g>
<g>
</g>
<g>
</g>
<g>
</g>
</svg>
