<?xml version="1.0" encoding="utf-8"?>
<!-- Generator: Adobe Illustrator 18.0.0, SVG Export Plug-In . SVG Version: 6.00 Build 0)  -->
<!DOCTYPE svg PUBLIC "-//W3C//DTD SVG 1.1//EN" "http://www.w3.org/Graphics/SVG/1.1/DTD/svg11.dtd">
<svg version="1.1" id="Objects" xmlns="http://www.w3.org/2000/svg" xmlns:xlink="http://www.w3.org/1999/xlink" x="0px" y="0px"
	 viewBox="0 0 800 800" enable-background="new 0 0 800 800" xml:space="preserve">
<g>
	<g>
		<g>
			<g id="XMLID_28_">
				<g>
					<path fill="#DF5765" d="M437.3,119c0.4,6.3-6.2,10.2-11.7,7.2c-5.3-2.9-4.4-10.1-0.1-13.4C430.5,110.1,436.9,112.9,437.3,119z"
						/>
					<path fill="#DF5765" d="M446.6,160.1c0.2,0.9-0.8,3.3-1.1,4.3c-0.6,2.4-1.3,4.8-1.9,7.2c-10.7-1.5-21.3-3.1-31.8-5.2
						c-2.6-0.5-5.1-1-7.7-1.5c-1.8-0.4-4.8-0.5-6.4-1.5c-2.5-1.6-4.2-5.1-3.5-7.9c0.3-1.3,0.8-2.5,1.2-3.8c0.6-1.9,1-3.6,0.9-5.5
						c10.4,1.9,20.9,3.6,31.2,5.9c4.7,1.1,10.2,1.8,14.7,3.7c0.3,0.1,0.5,0.2,0.8,0.3C444.6,157,446.2,158.1,446.6,160.1z
						 M440.7,157.9c0.2-0.2-0.1-0.6-0.3-0.4c-1,0.7-2.1,1.4-3.1,2.1c0.2-0.8,0.4-1.6,0.6-2.4c0.1-0.4-0.5-0.6-0.7-0.2
						c-0.4,1.1-0.7,2.3-1.1,3.5c0,0,0,0,0,0c-0.6-0.9-1.3-1.9-1.9-2.8c-0.1-0.2-0.5,0-0.4,0.2c0.6,1,1.1,2,1.7,2.9
						c-0.9-0.2-1.8-0.4-2.7-0.5c-0.5-0.1-0.7,0.6-0.2,0.7c0.7,0.2,1.4,0.3,2.1,0.5c-1,0.8-2,1.6-2.9,2.4c-0.2,0.1,0,0.4,0.2,0.3
						c1.3-0.8,2.5-1.6,3.7-2.4c-0.4,1.3-0.7,2.6-0.9,4c-0.1,0.4,0.5,0.6,0.6,0.2c0.4-1.1,0.8-2.3,1.1-3.5c0.6,0.9,1.2,1.8,1.8,2.7
						c0.2,0.3,0.6,0,0.4-0.3c-0.5-0.9-1.1-1.9-1.7-2.8c0.8,0.2,1.6,0.3,2.4,0.4c0.5,0.1,0.7-0.6,0.2-0.7c-0.9-0.3-1.8-0.5-2.8-0.7
						c0-0.1,0-0.2,0.1-0.2C438.2,159.8,439.5,158.9,440.7,157.9z M424.4,155.4c0.3-0.2-0.1-0.6-0.4-0.5c-1,0.7-1.9,1.4-2.9,2.1
						c0.1-1.2,0.3-2.3,0.4-3.5c0-0.2-0.3-0.3-0.4-0.1c-0.3,1.4-0.6,2.7-0.9,4.1c-0.1,0.1-0.1,0.1-0.2,0.2c-0.6-0.9-1.3-1.7-1.9-2.6
						c-0.2-0.3-0.6,0-0.5,0.3c0.5,0.8,1,1.5,1.5,2.2c-0.8-0.1-1.5-0.2-2.3-0.2c-0.3,0-0.4,0.5-0.1,0.5c0.8,0.1,1.6,0.3,2.4,0.4
						c-0.9,0.7-1.8,1.4-2.7,2.1c-0.2,0.2,0.1,0.6,0.3,0.4c1-0.7,2-1.4,3-2.1c0,0.1,0.1,0.2,0.2,0.2c-0.2,1.1-0.4,2.3-0.4,3.4
						c0,0.3,0.4,0.4,0.5,0.1c0.2-0.8,0.4-1.7,0.5-2.6c0.7,1,1.4,1.9,2.2,2.8c0.2,0.2,0.5-0.1,0.4-0.3c-0.7-1.3-1.5-2.5-2.4-3.7
						c0,0,0-0.1,0-0.1c0.5,0.1,1,0.1,1.5,0.2c0.4,0,0.4-0.6,0.1-0.6c-0.5-0.1-1-0.2-1.5-0.3C422.2,157.1,423.3,156.3,424.4,155.4z
						 M409.9,155.4c0.3,0,0.4-0.5,0.1-0.5c-1.6-0.2-3.1-0.4-4.7-0.6c0.6-0.4,1.1-0.8,1.7-1.1c0.3-0.2,0-0.7-0.3-0.5
						c-0.4,0.3-0.9,0.5-1.3,0.8c0.2-1.1,0.3-2.3,0.4-3.3c0-0.1-0.1-0.1-0.1,0c-0.4,1.2-0.9,2.5-1.3,3.8c-0.8-0.8-1.6-1.5-2.4-2.2
						c-0.1-0.1-0.3,0-0.2,0.2c0.5,0.8,1,1.5,1.6,2.2c-1.2-0.1-2.4-0.2-3.5-0.4c-0.3,0-0.3,0.4-0.1,0.5c1.2,0.2,2.3,0.3,3.5,0.5
						c-1.3,0.8-2.5,1.7-3.8,2.6c-0.2,0.1,0,0.4,0.2,0.3c1.5-0.8,2.9-1.6,4.3-2.6c-0.5,1.8-0.8,3.6-1,5.3c0,0.3,0.4,0.3,0.5,0.1
						c0.5-1.4,1-3,1.3-4.6c0.8,0.9,1.7,1.8,2.6,2.6c0.2,0.2,0.6-0.1,0.4-0.3c-0.8-1-1.6-2.1-2.6-3.1
						C406.9,155.1,408.4,155.2,409.9,155.4z"/>
					<path fill="#DF5765" d="M437,125.3c5.6,8.7,7.7,18.1,6.1,28.3c-2.5-0.7-5.2-1-6.8-1.4c-11.3-2.8-22.8-5.3-34.3-6.4
						c3.2-10.3,9.7-18,18.5-24c0.6,2.6,2.2,5,4.7,6c0.1,0,0.3,0,0.3-0.1c3,1.4,6.8,1.2,9.6-0.7C435.9,126.6,436.5,126,437,125.3z"/>
				</g>
			</g>
		</g>
	</g>
	<g>
		<g>
			<g id="XMLID_33_">
				<g>
					<path fill="#FCC79B" d="M647.7,337l0.2,0c0,0.1,0,0.3,0,0.4c-0.1,0-0.3,0.1-0.2,0.2c0,0.1,0.1,0.2,0.2,0.4
						c-0.1,0.8-0.1,1.6-0.2,2.4c0,0.1,0,0.2,0.1,0.3c-12.8,5.5-26,5.1-38.8-0.3c0.1-0.4,0.1-0.7,0.4-1.1c0.2-0.3,0.4-0.5,0.8-0.7
						c0.1,0.3,0.2,0.6,0.3,0.9c0.1,0.2,0.4,0.2,0.4,0c0-0.4-0.1-0.7-0.1-1.1c0.1,0,0.2,0,0.3,0c0.1,0,0.2-0.1,0.2-0.2
						c10.7,5.6,26.4,6.5,36.4-0.7C647.7,337.3,647.7,337.1,647.7,337z"/>
					<path fill="#FCC79B" d="M663.6,347.3c3.4,1.4,5.5,3.2,7.9,5.9c-9.5-1.9-21.8-0.4-23.9-11.3c0-0.2-0.3-0.3-0.5-0.2l-0.1-0.2
						c0.7-0.3,1.4-0.7,2-1.1c0.3-0.2,0.1-0.5-0.2-0.5c0-0.1,0.1-0.2,0.1-0.3c1.7,2.2,4.1,3.7,6.8,4.8
						C658.4,345.7,661.1,346.3,663.6,347.3z"/>
					<path fill="#FCC79B" d="M678.8,358.2c4.9,4.1,7,10.2,6.3,16.4c-1.2-1.5-2.5-3-3.8-4.4c-0.2-0.2-0.6-0.2-0.8,0
						c-1.9,1.6-3.8,3.2-5.7,4.9c0.6-6.2-3.9-11.3-9.3-14.1c-0.5-0.3-1-0.5-1.5-0.7c-8.5-4-19.2-5.5-21.5-16.2c0-0.1-0.1-0.2-0.2-0.3
						c1.7-0.6,3.3-1.3,4.8-2l0.1,0.2c-0.1,0.1-0.1,0.1-0.1,0.2c0.7,7.5,8.3,10.5,14.8,11.4C667.8,354.2,673.9,354.2,678.8,358.2z"/>
					<path fill="#FCC79B" d="M644.8,322.8c3,4.5,3.3,9.2,3.1,14.2l-0.2,0c0-0.3-0.2-0.6-0.6-0.5c-6.1,2.1-11.3,4.3-17.9,4.5
						c-6.6,0.1-12.8-1.3-18.8-3.9c-0.3-11.2,6.1-22.9,18.8-22.9C635.6,314.2,641.4,317.5,644.8,322.8z"/>
					<path fill="#FCC79B" d="M662.4,360.8c-7.2,5.3-16.4-1.6-24.4-0.4c-8.1,1.3-14.2,7.6-22.7,7.4c-9.8-0.2-17.9-6.4-24.4-13.2
						c-2-2.1-6-5-2.3-8.4c1-0.9,4.3-1.1,5.5-1.4c4.6-1.2,9.2-2.4,13.8-3.9c10.1,5.8,22.6,6.5,33.6,2.9c0,0,0,0.1,0,0.1
						C642,354.1,653.3,356.9,662.4,360.8z"/>
				</g>
			</g>
		</g>
	</g>
	<g>
		<g>
			<g id="XMLID_8_">
				<g>
					<path fill="#A0CCBF" d="M67.8,348.2c0.3,0.2,0.5,0.4,0.8,0.6c0,0,0,0,0,0c0,0.2,0,0.4,0,0.6c-0.1,0.3-0.1,0.5-0.2,0.8
						c0,0.3-0.1,0.7-0.1,1.1c0,0,0,0,0,0c-0.1,0.4-0.1,0.7-0.2,1.1c0,0,0,0.1,0,0.1c-0.4-0.2-0.8,0.4-0.5,0.7
						c12.2,13.9,36.6,13.7,49.4,1c0.3-0.3-0.1-0.9-0.5-0.6c0,0-0.1,0.1-0.1,0.1c0.2-2.5,0.5-5.1,0.6-7.7c2.8,3,6.2,5.9,7.3,9.9
						c1.6,5.4-1.9,9.7-6.2,12.3c-6.9,4.3-16,5-23.9,4.5c-7.8-0.4-16.3-1.6-23.7-4c-4.3-1.4-8.4-3.6-10.7-7.6
						c-3.4-5.8-0.3-14.3,7.6-13C67.7,348.3,67.8,348.2,67.8,348.2z"/>
					<path fill="#A0CCBF" d="M70.2,348.9c0-0.1-0.1-0.1-0.1-0.1c0-0.1,0-0.2,0-0.3c12.1,9.1,33.4,10.7,45.8,1.4
						c0,1.4,0.1,2.9,0.1,4.3c-7.1,5-14.9,8.4-23.8,8.2c-8.6-0.2-15.4-3.6-22.2-8.4c0.1-1.4,0.1-2.7,0.1-4.1c0-0.1,0-0.2,0-0.3
						c0,0,0-0.1,0-0.1c0,0,0-0.1,0-0.1C70.3,349.2,70.3,349,70.2,348.9z"/>
					<path fill="#A0CCBF" d="M116.8,324c-8.1,2.5-15.9,4.6-24.5,4.6c-9.1,0-16.8-2.8-25.4-5.1c8.4-4,16.2-6.9,25.7-6.8
						C101.8,316.8,108.9,320.1,116.8,324z"/>
					<path fill="#A0CCBF" d="M92.3,330.2c8.2,0,16.8-1.4,24.3-5.1c-0.7,7.7-0.8,15.6-0.7,23.4c-0.1,0-0.1,0-0.2,0.1
						c-7.9,3.3-14.9,6.2-23.7,5.8c-7.9-0.3-15-3-21.8-6.8c0-0.1,0-0.2-0.1-0.3c-0.2-7.4-1.4-15-2.8-22.2
						C74.5,329.2,84.3,330.3,92.3,330.2z"/>
				</g>
			</g>
		</g>
	</g>
	<g>
		<g>
			<g id="XMLID_11_">
				<g>
					<path fill="#FCC79B" d="M216.7,403.3l1.6,0.4c-0.8,3.8-1.6,7.6-2.4,11.3c-3,13.8-6.6,27.6-9.1,41.5c-0.1,0.1-0.2,0.2-0.2,0.3
						c-0.1,2.8-3.3,4.3-5.3,2.1c0,0,0,0,0,0c0.1-0.1,0.2-0.3,0.3-0.4c0.2,0.2,0.6,0.2,0.7-0.1c1.1-3.4,2-6.8,2.9-10.3
						c0.8,0.4,2,0.1,2.3-0.9c0.1-0.4-0.2-0.8-0.6-0.8c-0.3,0-0.6,0-0.9,0c-0.2,0-0.3,0.1-0.4,0.1c0.8-3.4,1.6-6.8,2.3-10.2
						c0.1,0.2,0.3,0.4,0.5,0.5c0.3,0.3,0.8,0.4,1.1,0.1c0.4-0.3,0.3-0.8,0.1-1.2c-0.3-0.4-0.8-0.7-1.3-0.7c-0.1,0-0.1,0-0.2,0
						c0.7-3.4,1.4-6.8,2-10.3c0.2,0.5,0.9,0.6,1.3,0.3c0.6-0.3,0.8-1.2,0.2-1.6c-0.4-0.3-0.9-0.2-1.3,0.1c0.7-3.4,1.4-6.8,2.1-10.1
						c0.8-3.5,1.5-7,2.3-10.5c0.1,0.6,0.5,1.1,1.2,1.1C216.3,404.2,216.6,403.8,216.7,403.3z M213.9,414.3c0.7-0.6,0.1-1.7-0.7-1.6
						c-0.3,0-0.5,0.2-0.6,0.4c0,0.1,0,0.2,0,0.2c-0.1,0.1-0.1,0.2-0.1,0.3C212.4,414.3,213.3,414.8,213.9,414.3z"/>
					<path fill="#FCC79B" d="M221.9,369.4c1.2,0.9,2.7,1.5,4.2,1.7c-3.1,10.7-5.4,21.7-7.7,32.6l-1.6-0.4c0-0.1,0-0.1,0-0.2
						c0-0.6-0.4-0.9-0.9-1c0,0-0.1,0-0.2,0c-0.1-0.1-0.2-0.1-0.4,0c0,0,0,0,0,0c-0.1,0-0.3,0.1-0.4,0.2c0.8-3.7,1.6-7.4,2.3-11.1
						c0.2,0.3,0.6,0.6,1,0.5c0.8-0.2,0.9-1.3,0.3-1.8c-0.3-0.2-0.6-0.1-0.8,0.1c0,0-0.1,0-0.1,0.1c-0.1,0-0.1,0-0.2,0
						C218.9,383.2,220.4,376.3,221.9,369.4z M221.4,379.8c0.2-0.5,0.1-0.8,0-1.3c0-0.3-0.5-0.3-0.6-0.1c-0.2,0.4-0.4,0.8-0.3,1.3
						C220.6,380,221.1,380.1,221.4,379.8z"/>
					<path fill="#FCC79B" d="M237.5,395.4c0.1,0,0.2,0,0.2-0.1c-0.3,1-0.6,2.1-0.9,3.1h0c0.1-0.3,0-0.6-0.4-0.7
						c-3.4-0.8-6.8-1.6-10.3-2c0.2-1,0.3-2,0.4-2.9c1.8,0.7,3.8,1.1,5.6,1.6C233.9,394.8,235.7,395.4,237.5,395.4z"/>
					<path fill="#FCC79B" d="M236.8,398.5L236.8,398.5c-0.6,2.4-1.1,4.9-1.4,7.2c-0.8,0.2-1.5,0.6-2.2,0.9c-1.2,0.6-2.3,1.1-3.4,1.9
						l0,0c0-0.1,0-0.1-0.1-0.1c-0.7-1-1.8-1.6-2.8-2.4c-0.9-0.7-1.8-1.4-2.7-2.1c0,0,0,0,0-0.1c0.8-2.3,1.4-4.9,1.8-7.4
						c3.3,1.1,6.7,1.8,10.1,2.5C236.4,398.9,236.7,398.7,236.8,398.5z"/>
					<path fill="#FCC79B" d="M217.7,359.2c-0.2,3.4,0.9,6.7,2.8,9.5c-2.6,1-5.1,2.5-7.5,3.9c1.5-3.5,2.9-7.8,3.3-11.6
						c0-0.2-0.1-0.3-0.3-0.4l0,0C216.6,360.1,217.1,359.6,217.7,359.2z"/>
					<path fill="#FCC79B" d="M235.3,365.6c0,0.8,0,1.6,0.1,2.4c-1.3,3.3-2.1,6.5-3.7,9.6c-1-2.2-2-4.5-3.3-6.6c0.1,0,0.2,0,0.3-0.1
						c0.4-0.1,0.4-0.7,0.1-0.8c1.3-0.9,2.4-1.9,3.4-3.1c0.9-1,1.9-2.1,2.6-3.3C235,364.3,235.2,364.9,235.3,365.6z"/>
					<path fill="#FCC79B" d="M229,357c2.7,1.1,4.4,3,5.4,5.3c-1.1,1.3-1.9,2.9-3,4.2c-1,1.2-2.1,2.4-3.3,3.5c-2.2-0.1-4.1-0.4-6-1.4
						c0,0,0-0.1,0-0.1c0.1-0.2-0.3-0.4-0.4-0.1c0,0,0,0,0,0c-0.1,0-0.2-0.1-0.2-0.1c0,0,0,0,0,0c-2.1-2.9-3-6-3.2-9.6
						C221.4,356.5,225.1,355.5,229,357z"/>
					<path fill="#FCC79B" d="M253,389.7c0.5,8.5,0.2,17.3,1.4,25.8c-4.7,1.5-9.1,2.9-14,3.7c0.4-1.8,0.7-3.6,1.1-5.3
						c0-0.2-0.3-0.3-0.4-0.1c-0.6,1.8-1.1,3.7-1.6,5.6c-0.1,0-0.2,0-0.3,0c-0.4,0-0.4,0.7,0,0.7c0,0,0,0,0.1,0
						c-1.7,6.2-3.1,12.5-4.6,18.7c-2,8-4.4,16.1-5.8,24.2c-0.1-0.1-0.3-0.1-0.5-0.1c-7.5,0.8-14.3-0.3-21.2-2.8
						c4-14.6,6.8-29.7,10.1-44.5c3.3-14.6,7.2-29.4,9.5-44.2c0.3,0,0.7,0,1-0.1c0.9,2.7,2.3,5.3,3.4,7.9c0.2,0.4,0.7,0.3,0.9,0
						c1.5-2.7,3.2-5.8,3.9-8.9c0.3,0,0.5-0.2,0.5-0.5c0-0.3,0-0.5,0-0.8c0,0,0-0.1,0-0.1c0.1-0.3,0.2-0.6,0.2-0.9
						c3.9,2.1,8.1,3.9,11.2,7.2C251.9,379,252.6,384.3,253,389.7z M239,394.3c0.1-0.6-0.6-0.8-0.8-0.2c-0.1,0.2-0.2,0.5-0.3,0.7
						c0-0.1-0.1-0.1-0.2-0.2c-1.8-0.8-3.8-1-5.7-1.4c-1.8-0.3-3.6-0.8-5.4-0.9c0-0.1,0-0.2,0-0.3c0-0.3-0.4-0.3-0.5-0.1
						c-1.2,3.6-2.3,7.6-2.8,11.4c-0.3-0.1-0.6,0.3-0.3,0.5c1,1,2.1,1.8,3.1,2.7c0.9,0.8,1.9,1.8,3,2.3c0.2,0.1,0.6,0,0.6-0.3
						c0,0,0.1,0,0.1,0c1.3-0.2,2.4-0.6,3.7-1.1c1-0.4,2-0.6,2.8-1.4c0.2-0.2,0.1-0.7-0.3-0.6c-0.1,0-0.1,0-0.2,0
						C237.2,402,238.4,398.1,239,394.3z"/>
					<path fill="#FCC79B" d="M215.1,361.8c-1.3,3.4-2.2,7.5-2.6,11c-0.2,0.1-0.4,0.2-0.6,0.4c-0.3,0.2,0,0.6,0.3,0.5
						c3.1-1.3,6.5-2.6,9.3-4.4c-3.4,15-6.9,29.9-10.3,44.9c-3.2,14.1-7.5,28.5-9.4,42.9c-0.3,0.4-0.6,0.8-0.9,1.2
						c-0.2,0.3-0.3,0.5-0.4,0.8c-3.5-0.1-6.8,0.1-10.3-0.6c-3.5-0.8-6.6-2.2-9.9-3.8c0,0,0,0,0,0l0-0.1c0.3,0.1,0.7,0,0.8-0.4
						c4.8-17.9,8.8-36.5,12-54.7c0.1-0.4-0.4-0.5-0.5-0.2c-0.8,3-1.6,6-2.4,9c-2-1.9-4.6-3.1-6.9-4.5c-2.5-1.6-5-3.2-7.7-4.6
						c5.5-7.4,9.8-15.6,15.1-23.1C197.1,367.3,205.4,365.1,215.1,361.8z"/>
				</g>
			</g>
		</g>
	</g>
	<g>
		<g>
			<g id="XMLID_42_">
				<g>
					<path fill="#008B9E" d="M504.6,81.4c3.7-0.9,7.5-1.8,11.1-3c0.1,0.3,0.3,0.7,0.4,1c0.2,0.4,0.4,1,0.7,1.4c-1.5,0.2-3,0.7-4.5,1
						c-2.4,0.5-4.7,1-7.1,1.7c0-0.2-0.1-0.3-0.1-0.5C505,82.5,504.9,82,504.6,81.4C504.6,81.4,504.6,81.4,504.6,81.4z"/>
					<path fill="#008B9E" d="M473.1,51.8c7.9-1.4,16.6-3.1,24.1-5.9c0.3,0.3,0.6,0.5,0.9,0.8c-0.3,0-0.6,0.2-0.6,0.6
						c-0.7,7-0.8,13.9-2.1,20.9c-0.6,3.1-1.3,6.2-2.2,9.2c-3.8-3.6-7.6-7.3-10.9-11.4C478.8,61.5,476.1,56.6,473.1,51.8z"/>
					<path fill="#008B9E" d="M471.4,53c0.3-0.3,0.7-0.7,0.9-1c0,0,0.1,0,0.1,0c3.9,10.3,11.9,20.3,20.4,27.1c-0.6,2.3-1.3,4.6-2,6.9
						c-0.2,0.1-0.4,0.2-0.3,0.5c0,0.1,0,0.3,0.1,0.4c0,0,0,0.1,0,0.1c0,0.1,0,0.2,0.1,0.2c0,0,0,0,0,0c1.1,8,3.9,16.1,5.9,23.9
						c2.2,8.5,4.1,17.1,6.9,25.4c-0.1-0.1-0.2-0.1-0.3-0.2c-0.3-0.2-0.6,0.3-0.4,0.5c1.8,1.6,3.8,3.1,5.7,4.6l-0.6,0.7
						c-0.1-0.1-0.4-0.1-0.6,0c-1.5,1.1-2.6,2.7-3.8,4c-0.8,1-1.8,1.9-2.6,3c-0.1-0.1-0.3-0.2-0.5-0.2c-5,0.2-9.6,0.6-14.5-0.4
						c-4.5-0.9-8.6-2.8-12.7-5c0,0,0.1-0.1,0.1-0.2c5-15.5,0.6-35.4-9.8-48c3.7-9.3,1.6-21.6-4.8-29.3c2.4-1.5,4.6-3.3,6.6-5.2
						c2.2-2.1,4.9-4.7,6-7.5C471.4,53.2,471.4,53.1,471.4,53z M492,124.7c0.5-0.1,0.4-0.9-0.1-0.9c-3.9,0.3-7.7,0.9-11.5,1.8
						c-0.4,0.1-0.3,0.7,0.1,0.7C484.3,126,488.2,125.5,492,124.7z"/>
					<path fill="#008B9E" d="M503,123.5c0,0.2,0.1,0.3,0.2,0.4c0.4,0.8,1.4,1.2,2.3,0.8c0.2-0.1,0.4-0.5,0.3-0.7
						c-0.3-0.7-1-1.2-1.7-1.2c0-0.1,0-0.1,0.1-0.2c0.3-0.5-0.4-1.1-0.8-0.6C502.9,122.4,502.9,123,503,123.5z M503.8,81.6
						c0,0,0.1,0,0.1,0c0,0,0,0,0,0.1c0,0.5,0.2,1.1,0.3,1.6c0.1,0.5,0.2,1.1,0.5,1.5c0.2,0.2,0.7,0.3,0.7-0.1c0-0.1,0-0.3,0-0.4
						c2.3-0.3,4.5-0.7,6.8-1.1c2.2-0.4,4.6-0.6,6.7-1.5c0.5-0.2,0.2-0.9-0.3-0.9c-0.3,0-0.5,0-0.8,0c-0.1-0.5-0.5-1-0.8-1.5
						c-0.3-0.4-0.5-0.8-0.8-1.3c0.1-0.4-0.1-0.8-0.6-0.8h0c-0.1-0.1-0.3,0-0.4,0.1c-4,1-7.9,2.3-11.7,3.7
						C503.2,81.1,503.3,81.7,503.8,81.6z M499.9,109.9c-1,1.2,1.3,2.4,2,1.1c0.4-0.8-0.1-1.9-1.1-1.8
						C500.4,109.3,500,109.6,499.9,109.9C499.9,109.9,499.9,109.9,499.9,109.9z M497,97.7c0,0.1,0,0.2,0,0.3
						c-0.1,0.1-0.1,0.2-0.1,0.4c0,0.1,0,0.1,0.1,0.2c0,0.2,0,0.4,0,0.7c0.1,0.6,0.8,0.7,1,0.2c0.5,0.1,1.1,0.1,1.5-0.3
						c0.6-0.4,0.8-1.1,0.2-1.6c-0.6-0.6-1.4-0.7-2.2-0.5C497.2,97.1,497.1,97.4,497,97.7z M494.1,85.1c-0.8,1-0.1,2.4,1,2.7
						c1.2,0.3,2.2-0.8,2.1-1.9c-0.1-1.2-1.3-2.1-2.5-1.4c-0.2,0.1-0.4,0.3-0.5,0.5C494.2,85,494.1,85.1,494.1,85.1z M538.8,128.9
						c-6,7.6-13,12.8-20.9,18.2c0,0,0,0,0,0c0,0,0-0.1-0.1-0.1c-2.1-1.9-4.6-3.5-6.9-5.2c-2.3-1.7-4.6-3.5-7.1-5.1
						c-1.4-8.5-3.7-16.8-5.8-25.1c-2-8.4-3.5-17.4-6.6-25.4c0-0.1-0.1-0.1-0.1-0.2c5.1-11.5,8.3-26.3,7.2-38.8c0-0.1,0-0.1,0-0.1
						c3.2,2.4,7.5,3.7,11.7,3.5c1.7,0.1,3.3,0,4.9-0.4c-0.1,10,3.5,22.6,10.5,29.8c-0.8,17,4.5,34.1,13,48.6
						C538.8,128.8,538.8,128.8,538.8,128.9z M526.5,114.3c0.4-0.2,0.4-0.8-0.1-0.8c-4.3,0.4-8.8,2.5-12.5,4.6
						c-0.3,0.2,0,0.7,0.3,0.5C518.3,116.8,522.4,115.8,526.5,114.3z"/>
				</g>
			</g>
		</g>
	</g>
	<g>
		<g>
			<g id="XMLID_2_">
				<g>
					<path fill="#008B9E" d="M331.1,47.6c1.6,16.7,0.9,32.2-2.7,48.6c-3.7-7.7-7.4-15.2-10.1-23.3c-1.3-3.9-2.4-7.8-3.3-11.8
						c-1-4.1-1.4-8.5-2.6-12.5c5.5-0.3,11.7-0.8,16.9-2.3C329.8,46.8,330.4,47.2,331.1,47.6z"/>
					<path fill="#008B9E" d="M308.5,125.9c-0.2-1.8-0.4-3.6-0.6-5.4c0.1,0,0.1,0.1,0.2,0.1c1.6-0.3,3.1-0.6,4.8-0.6
						c1.1,0,2.2,0.2,3.3,0.2c0,0.8,0,1.6,0.1,2.3c0,0.7,0,1.4,0.1,2.1c-2.5,0.3-5.1,0.9-7.5,1.5c-0.1,0-0.2,0.2-0.2,0.3l-0.1,0
						C308.5,126.3,308.5,126.1,308.5,125.9z"/>
					<path fill="#008B9E" d="M357.6,112.5c0.4,1.8,0.8,3.6,1.1,5.4c-3.1,0.5-6.4,1.9-9.4,3c0-0.2,0-0.4-0.1-0.7
						c0.3,0.1,0.6-0.2,0.5-0.5c-0.2-1-0.8-1.9-1-2.9c-0.2-0.9-0.2-1.7-0.2-2.6c2.4-0.3,5.1-0.4,7.4-1.2c0.1-0.1,0.3-0.2,0.3-0.3
						C356.7,112.7,357.1,112.6,357.6,112.5z"/>
					<path fill="#008B9E" d="M309.4,59c0.4,0.1,0.8-0.4,0.6-0.7c-0.5-0.7-1.2-1.1-1.9-1.5c-0.5-0.3-1-0.6-1.5-0.9
						c0.1-0.2,0-0.5-0.2-0.7c1.1-1.1,2-2.3,3-3.6c0.7-0.9,1.5-1.8,2.1-2.7c-0.3,8.3,3,17.7,5.6,25.3c2.4,7,5.2,14.1,8.9,20.6
						c-3.9-4.3-7.4-8.8-10.5-13.7c-1.4-2.3-12.5-21.4-7.1-22.6C308.8,58.7,309.1,58.9,309.4,59z"/>
					<path fill="#008B9E" d="M332,48.1c1.7,0.9,3.5,1.5,5.2,1.7c0.6,0.4,1.3,0.7,2,1c0,0,0,0,0,0c-1.1,1-1.8,2.3-2.6,3.5
						c-0.3,0.4,0.4,0.9,0.7,0.6c1.1,0.5,2.2,1.1,3.3,1.4c-1.2,6.7-2.1,13.4-3.9,20c-1.6,5.7-3.8,11.1-6.2,16.4
						C334.1,78.4,334.9,62.5,332,48.1z"/>
					<path fill="#008B9E" d="M335.2,121.3c0.2,0,0.3,0,0.5,0c0,0,0,0,0.1,0c0,0,0,0,0,0c0,0,0.1,0,0.1-0.1c0,0,0,0,0,0
						c0.3-0.2,0.5-0.6,0.4-1c0-0.2-0.1-0.3-0.2-0.4c-0.1-0.2-0.3-0.4-0.4-0.5c-0.6-0.3-1.3,0.1-1.4,0.7c0,0,0,0.1,0,0.1c0,0,0,0,0,0
						c-0.1,0.2,0,0.5,0.2,0.7c0,0,0.1,0.1,0.1,0.1C334.8,121.1,335,121.3,335.2,121.3z M332.7,104c-0.5,0.1-0.9,0.5-1.1,1
						c0,0.1-0.1,0.1-0.1,0.2c-0.1,0.2-0.1,0.4,0,0.6c0,0.3,0.2,0.5,0.4,0.7c0.3,0.2,0.7,0.1,0.8-0.1c0,0,0,0,0,0
						c0.1,0,0.3-0.2,0.4-0.3c0.1-0.1,0.1-0.3,0.1-0.4v0c0.4-0.4,0.5-0.9,0.2-1.4C333.3,104.1,333,104,332.7,104z M353.4,53.6
						c5.6,13.1,11.4,25.8,15,39.7c3.6,13.9,5.5,28.2,5.9,42.6c-1.7,0.1-3.5,0.6-5.1,0.9c-2,0.4-4.1,0.8-6,1.4
						c-0.6-5.9-1.6-11.9-2.6-17.7c-0.5-2.9-1-5.8-1.6-8.6c0.1-0.3,0-0.6-0.1-0.7c-1.2-6-2.7-12.1-4.5-17.9c-0.2-0.7-1.3-0.4-1.1,0.3
						c1.4,5.9,2.8,11.7,4.1,17.6c-3,0.4-6.1,0.9-9,1.6c-0.2-0.4-0.7-0.3-0.9,0.1c0,0,0,0.1,0,0.1c0,0,0,0,0,0
						c-0.3,0.1-0.3,0.4-0.1,0.6c-0.3,1.3,0,2.7,0.2,3.9c0.2,1.3,0.5,2.9,1.4,3.9c0,0.2,0.2,0.4,0.4,0.4c3.1-0.7,6.8-1.3,9.8-2.6
						c0.1,0.3,0.1,0.6,0.2,0.8c1.6,8.4,2.4,16.9,4,25.3c-5.7,4.6-12.1,6-19.4,6.4c-2.1-2.7-4.5-5.2-6.8-7.6c0.1-0.5,0.2-1,0.3-1.6
						c0-0.4-0.5-0.5-0.7-0.3c-0.7-6.8-2-13.5-3.1-20.2c-1.2-7.8-2.1-15.7-3.9-23.4c0-0.1,0-0.2,0-0.3c-0.1-0.2-0.1-0.3-0.2-0.4
						c0,0,0.1-0.1,0.1-0.1c6.7-12.3,11.6-27.2,11.8-41.3c0.2,0,0.4,0.1,0.5,0.1c0.3,0,0.4-0.4,0.2-0.6c-1.2-0.8-2.8-1.2-4.2-1.6
						c0.8-1,1.6-1.9,2.1-3c0-0.1,0.1-0.2,0-0.2c4.1,1.9,8.8,2.9,13.1,2.9C353.1,54,353.3,53.8,353.4,53.6z"/>
					<path fill="#008B9E" d="M293.6,62.7c4.1-1.8,8.7-3.8,12.4-6.4c0.4,0.4,0.9,0.8,1.4,1.2c0.1,0.1,0.1,0.1,0.2,0.2
						c-5.8,0.1,0.8,12.9,2,15.3c4.6,9.5,10.8,18.2,18.4,25.6c0.1,0.1,0.2,0.1,0.3,0.2c0.7,7.3,2.3,14.5,3.6,21.7
						c1.3,7.6,2.4,15.3,4.2,22.8c-0.1,0.1-0.1,0.3-0.1,0.4c-0.1,0.1-0.1,0.2-0.1,0.3c-0.7,2.5-1.1,5.2-1.4,7.7
						c-8,3.2-14.4,4.3-22.9,2.5c0,0,0,0,0,0c-0.8-9.3-2-18.6-3-27.8l0.1,0c0,0.2,0.1,0.3,0.3,0.3c2.9-0.3,6.2-0.5,9-1.3
						c0.5-0.1,0.4-0.9-0.1-0.9c-0.2,0-0.4,0-0.6,0c0.1-0.7-0.1-1.5-0.1-2.2c-0.1-0.7-0.1-1.4-0.2-2.1c0.1,0,0.1,0,0.2,0
						c0.5,0,0.5-0.7,0.1-0.8c-2.7-1.1-6.7-0.4-9.3,0.8c0,0,0,0,0,0c-0.7-6.9-1.3-13.9-2.7-20.7c0-0.2-0.3-0.1-0.3,0
						c0.2,9.4,1.7,19,2.7,28.3c0.7,6.2,1.2,12.4,1.9,18.6c-2-0.1-4.2,0.5-6.2,0.8c-2.1,0.3-4.1,0.6-6.2,1.1c0-0.1,0-0.1,0-0.2
						c-2.6-14.5-4.3-29.2-4.9-43.9C291.8,90.3,293.1,76.6,293.6,62.7z"/>
				</g>
			</g>
		</g>
	</g>
	<g>
		<g>
			<g id="XMLID_27_">
				<g>
					<path fill="#FCC79B" d="M426.2,217.7c-0.1,1.3-0.5,2.4-0.9,3.6c-0.6-0.1-1.2,0.1-1.8,0c-0.6-0.1-1.2-0.2-1.8-0.4
						c0.2-1.3,0-2.7-0.1-4c-0.1-1-0.1-2-0.3-3c0.4,0.1,0.8-0.4,0.5-0.8c0,0,0,0,0-0.1c1.3-0.2,2.4,0.4,3.3,1.5
						c0.2,0.3,0.7,0.2,0.8,0C426.2,215.6,426.3,216.6,426.2,217.7z"/>
					<path fill="#FCC79B" d="M408.3,218.4c0-0.2-0.2-0.3-0.4-0.3c-0.3-3.4,0.1-6.8,1.4-10.7c0,0,0,0,0,0c2.3,0.6,4.5,1.2,6.5,2.4
						c1.6,0.9,2.9,2.3,4.4,3.4c0,0.1,0.2,0.2,0.3,0.3c0,1.3,0,2.5,0.1,3.8c0,1.1,0,2.3,0.2,3.4c-0.2,0.1-0.3,0.4-0.1,0.5
						c0.1,0.1,0.1,0.1,0.2,0.2c-1.7,1.1-3,2.8-4.8,3.9c-1.9,1.1-3.8,1.9-5.9,2.6h0c-0.1-0.2-0.1-0.4-0.2-0.7c0.1-0.1,0.1-0.3,0-0.4
						c-0.3-0.9-0.6-1.7-0.9-2.6C408.7,222.3,408.3,220.4,408.3,218.4z"/>
					<path fill="#FCC79B" d="M438.5,226.3c-0.2,0.3-0.4,0.6-0.7,0.9c-4.3-0.9-8-2.6-11.7-4.9c1.7-2.5,1.6-6.2,0.4-8.9
						c1.5-1.6,3.4-3.1,5.3-4c2.1-1,4.2-1.1,6.4-1.4c3.4,5,3.9,10.9,1.5,16.3c-0.2-0.2-0.6-0.1-0.6,0.3
						C439,225.1,438.8,225.7,438.5,226.3z"/>
				</g>
			</g>
		</g>
	</g>
	<g>
		<g>
			<g id="XMLID_22_">
				<g>
					<path fill="#A0CCBF" d="M354.9,468.5c-0.3-3.4,0.1-6.8,1.4-10.7c2.3,0.6,4.5,1.2,6.5,2.4c1.6,1,2.9,2.3,4.4,3.4
						c0,0.1,0.2,0.2,0.3,0.3c0,1.3,0,2.5,0.1,3.8c0,1.1,0,2.3,0.2,3.4c-0.2,0.1-0.3,0.4-0.1,0.5c0.1,0.1,0.1,0.1,0.2,0.2
						c-1.7,1.1-3,2.8-4.8,3.9c-1.9,1.2-3.8,1.9-5.9,2.6c-0.1-0.2-0.1-0.4-0.2-0.6c0.1-0.1,0.1-0.3,0-0.4c-0.3-0.9-0.6-1.7-0.9-2.5
						c-0.5-1.9-0.9-3.8-0.9-5.8C355.3,468.6,355.1,468.5,354.9,468.5z"/>
					<path fill="#A0CCBF" d="M370.6,471.8c-0.6-0.1-1.2-0.2-1.8-0.5c0.2-1.3,0-2.7-0.1-4c-0.1-1-0.1-2-0.3-3
						c0.4,0.1,0.8-0.4,0.5-0.9c0,0,0,0,0,0c1.2-0.2,2.4,0.4,3.3,1.5c0.2,0.3,0.7,0.2,0.8,0c0.2,1,0.3,2.1,0.2,3.1
						c-0.1,1.3-0.5,2.4-0.9,3.6C371.7,471.7,371.1,471.9,370.6,471.8z"/>
					<path fill="#A0CCBF" d="M384.8,477.6c-4.4-0.9-8-2.6-11.7-5c1.7-2.5,1.6-6.2,0.4-8.9c1.5-1.6,3.4-3.1,5.3-4
						c2.1-1,4.2-1.1,6.4-1.4c3.4,5.1,3.9,10.9,1.5,16.3c-0.2-0.2-0.6-0.1-0.6,0.3c-0.1,0.7-0.3,1.3-0.6,1.9
						C385.3,477.1,385.1,477.4,384.8,477.6z"/>
				</g>
			</g>
		</g>
	</g>
	<g>
		<g>
			<g id="XMLID_7_">
				<g>
					<path fill="#A0CCBF" d="M125.5,273.2c-4.3-0.9-8-2.6-11.7-5c1.7-2.5,1.6-6.2,0.4-8.9c1.5-1.6,3.4-3.1,5.3-4
						c2.1-1,4.2-1.1,6.4-1.4c3.4,5.1,3.9,10.9,1.5,16.3c-0.2-0.2-0.6-0.1-0.6,0.3c0,0.7-0.3,1.3-0.6,1.9
						C126,272.7,125.7,273,125.5,273.2z"/>
					<path fill="#A0CCBF" d="M113.9,263.8c-0.1,1.3-0.5,2.4-0.9,3.6c-0.6-0.1-1.2,0.1-1.8,0c-0.6-0.1-1.2-0.2-1.8-0.5
						c0.2-1.3,0-2.7-0.1-4c-0.1-1-0.1-2-0.3-3c0.4,0.1,0.8-0.4,0.6-0.8c0,0,0,0,0-0.1c1.3-0.2,2.4,0.4,3.3,1.5
						c0.2,0.3,0.7,0.2,0.8,0C113.9,261.6,114,262.7,113.9,263.8z"/>
					<path fill="#A0CCBF" d="M108.6,267.4c-1.7,1.1-3,2.8-4.8,3.9c-1.8,1.2-3.8,1.9-5.9,2.6c-0.1-0.2-0.1-0.4-0.2-0.6
						c0.1-0.1,0.1-0.3,0-0.4c-0.3-0.9-0.6-1.7-0.9-2.5c-0.5-1.9-0.8-3.7-0.9-5.8c0-0.3-0.2-0.4-0.4-0.3c-0.3-3.4,0.1-6.8,1.4-10.7
						c2.3,0.6,4.5,1.2,6.5,2.4c1.6,1,2.9,2.3,4.4,3.4c0.1,0.1,0.2,0.2,0.3,0.3c-0.1,1.3,0,2.5,0.1,3.8c0,1.1,0,2.3,0.2,3.4
						c-0.2,0.1-0.3,0.4-0.1,0.5C108.4,267.3,108.5,267.3,108.6,267.4z"/>
				</g>
			</g>
		</g>
	</g>
	<g>
		<g>
			<g id="XMLID_45_">
				<g>
					<path fill="#008B9E" d="M533.1,571.4c-1.6-2.7-3.1-5.8-5.2-8.2c2-0.8,3.9-1.8,6.1-2.1c2.7-0.4,5.2-0.1,7.7,0.8
						c-0.1,1.3-0.1,2.5-0.6,3.7c-0.7,1.7-1.9,2.7-3,4.1c0,0.1-0.1,0.1-0.1,0.1c-0.8,0.2-1.6,0.5-2.4,0.8c-0.8,0.3-1.7,0.6-2.5,0.9
						C533.2,571.5,533.2,571.5,533.1,571.4z"/>
					<path fill="#008B9E" d="M535.2,637.9c0.1-0.1,0.1-0.2,0-0.3c-0.5-0.5-1-0.9-1.6-1.3c-1.2-1.2-2.3-2.4-3.4-3.8
						c-1.6-2.1-2.6-4.5-4.1-6.6c-0.1-0.1-0.2-0.2-0.3-0.2c0.6-8.1,0.6-16.2,1.5-24.2c1.1-9.8,3.4-19.4,4.8-29.1c0,0,0-0.1,0-0.1
						c0,0.1,0.1,0.1,0.2,0.1c0,0,0,0,0,0c0.1,0.1,0.2,0.2,0.4,0.2c1.2-0.2,2.4-0.6,3.5-0.9c1.1-0.3,2.2-0.5,3.1-1c0,0,0,0,0,0
						c0.4,9.6,2,19.2,2.8,28.8c0.8,9.9,1.2,19.8,1.6,29.7c-1.4,1.5-2.6,3.2-4,4.7C538.3,635.2,536.6,636.5,535.2,637.9
						C535.3,638,535.3,638,535.2,637.9z"/>
				</g>
			</g>
		</g>
	</g>
	<g>
		<g>
			<g id="XMLID_15_">
				<g>
					<path fill="#A0CCBF" d="M96.9,683.3c-0.4-5.3-2.8-11.3-5.9-15.7c-0.3-4.2-1.2-8.9-2.4-13c0.1-0.1,0.1-0.1,0.2-0.2
						c0.1-0.1,0.1-0.1,0.1-0.2c4.8,1.4,10.2,1.6,15.1,1.2c0.4,0,0.6-0.3,0.7-0.5l0.2,0c0,0.1,0,0.1,0,0.2c0.1,0.1,0.2,0.3,0.2,0.4
						c0,0,0,0,0,0c-0.4,1.6-0.4,3.3-0.6,5c-0.2,1.8-0.4,3.7-0.4,5.5C101.4,671.5,99,677.5,96.9,683.3z"/>
					<path fill="#A0CCBF" d="M95.1,689.5c-1.4-1.5-3.1-2.8-4.6-4.2c-1.9-1.8-3.8-3.6-5.9-5.2c0,0,0,0-0.1,0c0.6-0.7,0.9-1.7,1.3-2.6
						c0.3-0.6,0.6-1.2,0.8-1.9c0,0,0.1,0,0.1-0.1c0.2-0.1,0.2-0.4,0.1-0.5c0.1-0.2,0.1-0.4,0.2-0.7c0.1-0.5-0.5-0.8-0.8-0.4
						c-0.2,0.3-0.4,0.6-0.5,0.9c-0.5,0.1-0.9,0.3-1.4,0.4c-0.4,0.1-0.8,0.2-1.2,0.4c-0.2,0.1-0.3,0.2-0.4,0.3c0-2.6-0.1-5.3,0.1-7.9
						c0.2-2.8,1.1-5.6,1.3-8.4c0-0.2-0.1-0.3-0.2-0.4c1.5-1.2,2.9-2.5,4.3-3.9c0.3,4.3,1,9,2.2,12.9c0.1,0.2,0.3,0.3,0.5,0.3
						c1.2,2.4,2.4,4.9,3.3,7.5c0.7,2.2,1.2,4.4,1.7,6.6C95.4,684.9,95.1,687.3,95.1,689.5z"/>
					<path fill="#A0CCBF" d="M107.2,674.3c-0.1,0-0.2,0-0.2,0c-0.1-0.1-0.1-0.2-0.2-0.3c-0.2-0.2-0.6-0.1-0.5,0.2
						c0.7,1.8,1.4,4,2.6,5.6c-4.3,2.8-8.4,6-12.4,9.2c0-0.5-0.1-0.9-0.2-1.4c0-0.5,0-1,0-1.4c3.6-6.8,7.3-14.5,9.7-21.9
						c0.1-0.4-0.5-0.7-0.7-0.3c-0.1,0.1-0.1,0.2-0.2,0.4c0.1-1,0.2-2,0.3-3.1c0.2-1.5,0.5-3.1,0.5-4.7c0.5,0.7,1.1,1.4,1.7,2.1
						c0.9,1.1,1.7,2.3,2.7,3.3c-0.4,4.3-0.5,9.2-0.1,13.5c-0.3-0.1-0.6-0.3-0.9-0.4C108.6,674.9,107.9,674.6,107.2,674.3z"/>
					<path fill="#A0CCBF" d="M92,708c0.7,0.4,1.5-0.3,1.5-1c0-0.4-0.5-0.7-0.8-0.6c-0.2,0-0.3,0-0.4,0c-0.1-0.1-0.3,0-0.5,0.1
						C91.3,706.9,91.4,707.7,92,708z M92.6,697.5c0.9,0,1.6-0.9,1.2-1.8c-0.3-0.8-1.4-1.1-2.1-0.6c-0.6,0.5-0.2,1.2,0.4,1.4
						c0,0.2,0,0.3,0,0.4C92.1,697.3,92.3,697.5,92.6,697.5z M93,744.3c1.6-0.1,1.2-2.8-0.4-2.5c-0.8,0.2-1.1,1.4-0.4,1.8
						c0.1,0,0.2,0.1,0.2,0.1c0,0,0,0.1,0,0.1C92.6,744.2,92.7,744.3,93,744.3z M85.1,676.1c-0.1,0.3-0.2,0.7-0.4,1
						c-0.4,1-1,2.1-0.9,3.2c0,0.2,0.2,0.3,0.3,0.2c0,0,0,0.1,0.1,0.1c1.8,2,3.9,3.9,5.8,5.8c1.6,1.6,3.2,3.5,5.1,4.7
						c0,0.1,0,0.2,0,0.3c0,0.2,0.2,0.2,0.3,0.2c0.1,9.2,0.8,18.5,0.8,27.7c0,11.5-0.5,23-0.9,34.5c0,0.1,0,0.2,0.1,0.2
						c-0.5,0-1,0-1.4,0.1c-7.6,0.3-14.8-0.2-20.5-5.6c0.4-5.1-0.1-10.8-0.7-15.8c3.2-11,5.5-22.7,6.6-33.9c0-0.6-0.9-0.7-1-0.1
						c-2.9,13.2-5.5,26.6-8,39.9c-0.1-0.2-0.2-0.3-0.5-0.3c-2.1-0.1-4.2-0.1-6.4-0.4c-1.8-0.3-3.6-1-5.4-1.4
						c2.4-11.8,3.8-23.8,6.2-35.7c2.5-12.2,6.2-24.1,8.6-36.3c0,0,0,0,0,0c1.6-0.3,3.1-0.8,4.6-1.3c1.5-0.4,3-0.8,4.5-1.3
						c-1.4,4.7-1.2,10.6,0,15c0.1,0.3,0.5,0.2,0.5-0.1c0-0.1,0-0.2,0-0.3c0.3,0,0.5,0.1,0.8,0.1c0.4,0,0.7-0.1,1.1-0.2
						C84.7,676.2,84.9,676.1,85.1,676.1z M92.2,729.5c-0.1-0.3-0.5-0.4-0.7-0.1c-0.2,0.4-0.3,1-0.1,1.4c0.3,0.4,0.8,0.7,1.3,0.5
						C93.9,730.9,93.6,729,92.2,729.5C92.3,729.4,92.3,729.4,92.2,729.5z M92.7,719c0.3-0.2,0.3-0.5,0.2-0.8
						c-0.2-0.4-0.5-0.9-0.7-1.3c-0.4-0.8-1.4-0.2-1.3,0.6c0.1,0.5,0.4,0.9,0.6,1.4c0.1,0.2,0.4,0.3,0.6,0.2
						C92.3,719.2,92.5,719.2,92.7,719z"/>
					<path fill="#A0CCBF" d="M129.5,737.2c-2.3,0.5-4.6,0.6-6.8,1.1c-1.7-12.9-3.8-26-6.7-38.7c-0.1-0.6-1.2-0.5-1.1,0.1
						c1.6,12.2,4,24.5,6.6,36.5c-0.3,2.7-0.3,5.4-0.4,8.1c-0.2,1.7-0.3,3.4-0.3,5.1c-8,2.5-16.2,4-24.6,4.5c0-0.1,0.1-0.1,0.1-0.2
						c1-11.8,1.2-23.7,1.1-35.5c0-9.1,0.1-18.5-0.8-27.6c4.3-3.3,8.7-6.5,12.7-10.1c0.2,0.2,0.7-0.1,0.6-0.4c0,0,0-0.1,0-0.1
						c0.1-0.2,0-0.3-0.1-0.4c-0.5-1.5-1.3-2.9-2.2-4.3c0.5,0.3,0.9,0.6,1.4,0.8c0.4,0.3,0.9,0.5,1.4,0.7v0c0.1,0.4,0.5,0.4,0.7,0.2
						c0.3,0,0.6-0.5,0.3-0.7c0,0-0.1,0-0.1-0.1c0.5-4.3,0.3-9.1-0.1-13.5c0,0,0.1,0,0.1,0c1.9,0.8,3.8,1.4,5.7,2
						c1.6,0.5,3.2,1.3,4.8,1.5c2.6,11.5,6.5,22.6,9.1,34.1c2.6,11.4,4.6,22.9,6.4,34.4c-0.3,0-0.4,0-0.7,0.3c0,0,0,0,0,0h0
						c-0.1,0-0.2,0-0.4,0C134.1,735.8,131.9,736.7,129.5,737.2z"/>
				</g>
			</g>
		</g>
	</g>
	<g>
		<g>
			<g id="XMLID_32_">
				<g>
					<path fill="#A0CCBF" d="M724.9,326.3c2.2,2.9,4.6,5.4,2.3,9.9c-1.1,2.2-3.6,4.4-5.2,6.3c-1.5,1.8-3,3.7-4.6,5.4
						c-3.2,3.6-11.5,6.1-11.5-0.9c0-7.6,11-12.1,7.7-20.3C717.3,326.7,721.3,326.9,724.9,326.3z"/>
				</g>
			</g>
		</g>
	</g>
	<g>
		<g>
			<g id="XMLID_49_">
				<g>
					<path fill="#A0CCBF" d="M714.7,559.1c0.2,2.6,0.6,5.3,1.2,7.8c0.9,4.2,3,8.5,1.3,12.8c-1.3,3.2-5.3,6.6-7.4,9.3
						c-2.1,2.5-4.2,5.1-6.3,7.7c-0.6,0.8-1.8,2.5-2.7,2.9c-2.5-0.7-5-1.4-7.5-2.2c0.1-1.4,0.3-2.7,0.8-4c1.8-5.7,4.8-10.8,7.4-16.2
						c0.3,0.2,0.7,0.1,0.7-0.2c0.8-5.6,1.1-11.4,0.9-17.2c2.2,0,4.3-0.2,6.5-0.3C711.3,559.4,713,559.4,714.7,559.1z"/>
					<path fill="#A0CCBF" d="M715.8,550.9c0,2.5,0.1,5,0.3,7.5l-0.2,0c0-0.2-0.2-0.5-0.5-0.5c-0.3,0-0.5,0-0.8-0.1
						c0-0.8-0.1-1.5-0.1-2.3c0.5-0.1,0.5-1,0-1.1c0-1,0.1-1.9,0.2-2.9c0-0.2,0-0.5,0.1-0.7C714.9,550.3,715.8,550.3,715.8,550.9z"/>
					<path fill="#A0CCBF" d="M715.9,558.5c0,0.2-0.1,0.4-0.3,0.4c-0.3,0.1-0.5,0.1-0.8,0.2c0-0.4-0.1-0.8-0.1-1.2
						c0.3,0,0.5,0,0.8,0.1C715.7,558,715.9,558.2,715.9,558.5z"/>
					<path fill="#A0CCBF" d="M714.6,554.4c0.5,0.1,0.5,1,0,1.1C714.5,555.2,714.5,554.8,714.6,554.4z"/>
					<path fill="#A0CCBF" d="M708.6,554.6c2-0.1,4-0.5,5.9-0.2c0,0,0,0,0,0c0,0.4,0,0.7,0,1.1c0,0,0,0,0,0c-1.8,0.4-3.7,0.2-5.5,0.3
						c-2,0-4.1,0.1-6.1-0.1c0-0.2,0-0.3,0-0.5C704.8,554.8,706.7,554.8,708.6,554.6z"/>
					<path fill="#A0CCBF" d="M703.1,559c1.8-0.3,3.7-0.5,5.5-0.7c1.9-0.2,4-0.6,6-0.5c0,0.4,0,0.8,0.1,1.2c-1.7,0.3-3.4,0.3-5.1,0.4
						c-2.1,0.1-4.3,0.3-6.5,0.3C703.2,559.5,703.2,559.3,703.1,559z"/>
					<path fill="#A0CCBF" d="M714,552c-1.7,0.3-3.5,0.2-5.2,0.3c-2,0-4,0.2-5.9-0.1c-0.1,0-0.2-0.1-0.2-0.2c-0.1-0.1,0-0.3,0.2-0.3
						c1.7-0.4,3.4-0.4,5.1-0.5c1.9-0.1,4-0.5,5.9-0.3c0.3,0,0.6,0.4,0.6,0.6C714.4,551.8,714.3,552,714,552z"/>
					<path fill="#A0CCBF" d="M703.1,559c0,0.2,0,0.5,0,0.7c-0.1,0-0.2,0-0.3,0c-0.4,0-0.5-0.6-0.1-0.7
						C702.9,559.1,703,559.1,703.1,559z"/>
					<path fill="#A0CCBF" d="M703,555.2c0,0.1,0,0.3,0,0.5c0,0-0.1,0-0.1,0c-0.2,0-0.3-0.4,0-0.4C702.9,555.2,702.9,555.2,703,555.2
						z"/>
					<path fill="#A0CCBF" d="M703.2,559.8c0.1,5.8-0.1,11.6-0.9,17.2c0,0.3-0.5,0.4-0.7,0.2c0.3-0.5,0.5-1.1,0.8-1.6
						c0.1-0.3-0.2-0.5-0.4-0.2c-0.2,0.3-0.4,0.5-0.5,0.8c0.4-8,0.8-15.8,0.8-23.8c0-0.2,0.1-0.2,0.3-0.2c0.1,0,0.3,0.1,0.3,0.2
						c0.1,0.9,0.2,1.9,0.2,2.9c0,0-0.1,0-0.1,0c-0.3,0.1-0.2,0.4,0,0.4c0,0,0.1,0,0.1,0c0.1,1.1,0.1,2.3,0.2,3.4
						c-0.1,0-0.2,0-0.4,0.1c-0.4,0.1-0.3,0.6,0.1,0.7C703,559.8,703.1,559.8,703.2,559.8z"/>
					<path fill="#A0CCBF" d="M701.9,575.4c0.2-0.2,0.5,0,0.4,0.2c-0.3,0.5-0.5,1.1-0.8,1.6c-0.1-0.1-0.2-0.2-0.2-0.3
						c0-0.2,0-0.5,0-0.7C701.5,575.9,701.7,575.6,701.9,575.4z"/>
					<path fill="#A0CCBF" d="M700.8,599.5c0.9-0.4,2-2.1,2.7-2.9c2.1-2.5,4.2-5.1,6.3-7.7c2.2-2.7,6.2-6.1,7.4-9.3
						c1.7-4.3-0.4-8.6-1.3-12.8c-0.5-2.5-1-5.2-1.2-7.8c0.3,0,0.5-0.1,0.8-0.2c0.2-0.1,0.3-0.3,0.3-0.4l0.2,0
						c0.2,3.3,0.6,6.6,1.5,9.9c0.9,3.5,2.9,7,1.6,10.6c-1.4,3.8-5.3,7.2-7.7,10.2c-3.1,3.7-6,8.2-9.6,11.3c-3.2,2.8-8.3,3.3-9.5-1.8
						c-0.8-3.5,1.4-7.4,2.7-10.5c1.8-4.1,3.8-8.3,6.4-12c0,0.2,0,0.5,0,0.7c0,0.2,0.1,0.3,0.2,0.3c-2.6,5.3-5.6,10.5-7.4,16.2
						c-0.5,1.3-0.8,2.6-0.8,4C695.8,598.1,698.3,598.8,700.8,599.5z"/>
				</g>
			</g>
		</g>
	</g>
	<g>
		<g>
			<g id="XMLID_39_">
				<g>
					<path fill="#A0CCBF" d="M634.4,122.1c1.7,3.6,3.9,7.2,6,10.4c0.2,0.3,0.4,0.3,0.7,0.3l0,0.1c0,0-0.1,0-0.2,0
						c-1.1,0.4-2.2,0.8-3.2,1.3c0-0.2,0-0.3-0.1-0.5c-1.9-3.4-3.8-7-6.1-10.2C632.5,123.1,633.5,122.6,634.4,122.1z"/>
					<path fill="#A0CCBF" d="M630.8,124c1.6,3.6,3.7,7.2,5.7,10.5c0.1,0.1,0.1,0.2,0.2,0.2c-1.2,0.6-2.4,1.1-3.5,1.7l-0.3-0.7
						c0.2-0.1,0.4-0.4,0.3-0.6c-0.5-1.7-1.7-3.3-2.6-4.8c-1-1.6-1.9-3.2-2.9-4.8C628.7,125.1,629.7,124.5,630.8,124z"/>
					<path fill="#A0CCBF" d="M633.2,136.5c-3.8,2-7.5,4.2-11.3,6.1c-6.6,3.5-13.5,6.7-19.9,10.6c-0.2-0.3-0.7-0.4-1-0.1
						c-6.4,6.9-18.5,3.2-26.7,2.1c-2.2-0.3-5.8-0.2-7.6-1.7c-1.3-6.5,0.5-9.4,5.5-8.9c1.3-0.1,2.6-0.2,3.9-0.2
						c3.4-0.2,6.8-0.4,10.1-0.6c0.1,0.4,0.5,0.7,1,0.5c0.5-0.3,1.1-0.5,1.6-0.8c0.3,0,0.6-0.1,0.9-0.1c0.2,0,0.3-0.3,0.2-0.4
						c12.3-5.6,24.8-11.1,37-17.1c0.8,1.7,1.7,3.4,2.6,5c0.9,1.6,1.6,3.4,2.8,4.8c0.1,0.2,0.4,0.2,0.5,0.1L633.2,136.5z"/>
				</g>
			</g>
		</g>
	</g>
	<g>
		<g>
			<g id="XMLID_13_">
				<g>
					<path fill="#FCC79B" d="M214.5,516.5c4.2,15.1-4.7,28.4-6.8,43.2c-1,6.9,1,13.6,0.7,20.5c-0.2,4.5-1.1,9-5.8,10.7
						c-5.3,1.9-6.6-0.4-6.3-5.3c0,0,0,0,0,0c0.2-0.5,0.3-1,0.4-1.5c0.1-0.7-0.9-1.3-1.2-0.5c-2.8,6.2-8.3,8.3-14.9,8.2
						c-1.7,0-8.2,0-9.7-1.5c-0.1-2.1-0.2-4.1-0.4-6.2c0.9-0.3,1.7-0.6,2.6-0.9c1.2-0.4,2.4-0.6,3.5-1.1c7-2.8,10.4-9.8,12.9-16.5
						c0.1,0.5,1,0.5,1.1-0.1c0.6-8.2,0.8-16.5,1-24.7c0.2-7.8,0.7-15.9-0.1-23.8c0,0,0.1,0,0.1,0C199.5,515.7,206.6,516,214.5,516.5
						z"/>
				</g>
			</g>
		</g>
	</g>
	<g>
		<g>
			<g id="XMLID_31_">
				<g>
					<path fill="#DF5765" d="M741.3,234.7c1.9,19-9.2,38.3-2.5,56.8c-3.8,0.4-7.8,0.6-11.6,1.3c0.3-1.1,0.4-2.1,0.6-3.2
						c0.1-0.3-0.2-0.7-0.5-0.7c-0.9,0.1-1.8,0.2-2.6,0.4c-0.7,0.1-1.5,0.1-2.1,0.4c0-0.1,0-0.2,0-0.3c0-0.2-0.3-0.3-0.4-0.1
						c-0.3,0.6-0.5,1.1-0.7,1.7c-0.2,0.6-0.5,1.1-0.5,1.7c-9.8,0.6-18.4,0-27.5-4.4c-0.2-0.1-0.4,0-0.5,0.1l0,0
						c1.3-3.4,3.4-6.1,6.8-7.4c3.6-1.4,6.6-0.5,10,0.8c0.5,0.2,0.8-0.2,0.8-0.7c5.9-2.7,6.5-10.1,5.9-15.9
						c-0.5-4.7-1.2-9.4-1.9-14.1c-0.7-5.4-1-11.1-2.4-16.4c1-0.1,2-0.1,3-0.2c4.8,0.2,9.6,0.4,14.4,0.5c3.4,0.5,6.8,1.3,10.2,1.7
						c0.8,0.1,0.8-1.1,0.2-1.3c-0.1,0-0.2-0.1-0.3-0.1c0.4,0,0.8,0,1.2,0C741.1,235.1,741.2,234.9,741.3,234.7L741.3,234.7z"/>
				</g>
			</g>
		</g>
	</g>
	<g>
		<g>
			<g id="XMLID_17_">
				<g>
					<path fill="#FCC79B" d="M400.5,668.8C400.5,668.9,400.5,668.9,400.5,668.8c-0.2,0.8-0.3,1.5-0.3,2.3c0,0.7,0.1,1.5,0.5,2.1
						c-8.6-1.4-17.9-0.7-26.5-0.9c-8.5-0.1-18.8,1.1-25.5-5.2c-2.6-4.6,3.2-6.7,6.8-6.6c2.1,0.1,4.2,0.5,6.2,0.2
						c0.1,0.1,0.2,0.2,0.4,0.1c0.2-0.1,0.3-0.2,0.5-0.3c0.3-0.1,0.7-0.1,1-0.3c0.3-0.1,0.4-0.3,0.4-0.6c2.6-1.6,5.1-3.2,7.9-4.5
						c3.1-1.5,6.5-2.4,9.7-3.9c0.9,0.3,1.7,1.9,2.1,2.8c0.2,0.4,0.2,0.9,0.4,1.4c0.2,0.5,0.5,0.9,0.9,1.3c1,0.9,2.4,1.2,3.7,1.1
						c3-0.2,5.1-2.7,6.5-5.2c4.2,5.1,4.6,10.1,3.7,16.6c-0.1,0.6,0.8,0.8,1.1,0.3c0.1-0.3,0.3-0.5,0.4-0.8
						C400.3,668.8,400.4,668.8,400.5,668.8z"/>
				</g>
			</g>
		</g>
	</g>
	<g>
		<g>
			<g id="XMLID_43_">
				<g>
					<path fill="#A0CCBF" d="M434.1,71.6c0,0,0,0.1,0,0.1c-0.2,0.7-0.3,1.4-0.3,2.2c0,0.7,0.1,1.5,0.5,2.1
						c-8.6-1.4-17.9-0.7-26.6-0.8c-8.5-0.1-18.8,1.1-25.5-5.3c-2.5-4.6,3.2-6.7,6.8-6.6c2.1,0.1,4.2,0.5,6.2,0.3
						c0.1,0.1,0.3,0.2,0.4,0.1s0.3-0.2,0.5-0.3c0.3-0.1,0.7-0.2,1-0.3c0.3-0.1,0.4-0.3,0.4-0.6c2.6-1.6,5.1-3.2,7.8-4.5
						c3.2-1.5,6.5-2.4,9.7-3.9c0.9,0.3,1.7,1.9,2.1,2.7c0.2,0.4,0.2,0.9,0.4,1.4c0.2,0.5,0.5,0.9,0.9,1.3c1,0.9,2.4,1.2,3.7,1.1
						c3-0.2,5.1-2.7,6.5-5.2c4.2,5.1,4.6,10.1,3.7,16.6c-0.1,0.6,0.8,0.8,1.1,0.3c0.1-0.3,0.3-0.5,0.4-0.8
						C433.9,71.6,434,71.6,434.1,71.6z"/>
				</g>
			</g>
		</g>
	</g>
	<g>
		<g>
			<g id="XMLID_25_">
				<g>
					<path fill="#DF5765" d="M299.9,327.7c1.8,0,8.6-6.5,9.5-4.6c0.2,0.5,0.9,0.5,1.2,0.2c0.4,0.4,0.8,0.8,1.2,1.1
						c0.4,4.3,1.5,8.8,1.2,13c-0.3,3.3-2,7.2-5.7,7.6c-2,0.2-4.1,0.3-6.1,0.2c-3.8-0.2-6.7-2.1-10.3-2.6c-2-0.2-3.3,0.3-4.5,1.8
						c-0.1,0.1-0.1,0.3-0.1,0.4c-5.8-0.3-11.4,0.1-17.2-1.1c-1.3-0.3-2.5-0.6-3.7-1.2c-1.7-0.6-3.1-1.6-4.1-3.3
						c0.6-2.2,1.1-4.5,1.7-6.7c2.4-2.4,7.9,0.2,10.5,1c0.7,0.2,1.1-0.8,0.5-1.2c-0.1-0.1-0.3-0.1-0.4-0.2
						c6.8-3.5,13.7-13.5,21.6-7.3C296.8,326,297.8,327.7,299.9,327.7z"/>
				</g>
			</g>
		</g>
	</g>
	<g>
		<g>
			<g id="XMLID_41_">
				<g>
					<path fill="#DF5765" d="M606.1,82.7c-6.9,2.5-17.1-7.1-22.6,0.3c-4.7-0.5-9.3-0.8-13.9-2.3c-2.7-0.9-11.1-3.1-6.7-8.8
						c2-2.5,6.6-1.5,9.2-1.3c0.5,0,0.7-0.5,0.5-0.8c4.5-2.1,8.3-5.4,11.3-9.4c1.7-2.2,3.1-4.7,4.2-7.2c0.5-1.3,0.9-2.6,1.4-3.9
						c1.5-3.8,4.7-2.3,6.6,0.1c0,0.2,0,0.4,0.2,0.4c0,0,0,0,0.1,0h0c0.1,0.2,0.2,0.3,0.3,0.5c0.3,0.5,0.9,0.2,1-0.3
						c1.9,0.4,3.7,0.9,5.4,1.6c2,0.9,3.6,2.4,5.5,3.2c0.2,0.1,0.4,0,0.5-0.1l0,0c0,0,0,0.1,0,0.1C606.8,63.6,618.4,78.2,606.1,82.7z
						"/>
				</g>
			</g>
		</g>
	</g>
	<g>
		<g>
			<g id="XMLID_29_">
				<g>
					<path fill="#DF5765" d="M519.9,243c-3.5-0.1-7,0.1-10.6-0.2c-4.1-0.3-7.8-1.5-11.8-2.1c-0.1,0-0.2,0-0.2,0
						c-0.3-2.5-0.1-4.9,1.9-6.8c2.6-2.4,5.4-1.4,8.2-0.3c0.5,0.2,0.8-0.4,0.7-0.8c7.4-4.7,11.2-15.8,7.4-23.9c7.2-1,14-1.3,21.3-1.1
						c-1.5,4-0.7,8.2,0,12.5c1.3,8.1,0.7,15.2-2.2,22.9c-0.9-0.1-1.9-0.1-2.8-0.2c-1,0-2.1-0.2-3.1,0c0.1-1,0.1-2.1,0.2-3.1
						c0-1.3,0.2-2.6-0.1-3.9c-0.1-0.4-0.7-0.4-0.8,0c0,0.1,0,0.1,0,0.2c-1.4,1-2.6,2.2-3.9,3.3c-1.3,1.1-2.8,2.3-3.8,3.6
						C520.2,243.1,520,243,519.9,243z"/>
				</g>
			</g>
		</g>
	</g>
	<g>
		<g>
			<g id="XMLID_9_">
				<g>
					<path fill="#008B9E" d="M131.4,418.9c-1.3,1.1-2.8,2.3-3.8,3.6c0-0.1-0.1-0.3-0.3-0.3c-3.5-0.1-7,0.2-10.6-0.1
						c-4.1-0.3-7.8-1.5-11.8-2.1c-0.1,0-0.2,0-0.2,0c-0.3-2.5-0.1-4.9,1.9-6.8c2.6-2.3,5.4-1.4,8.2-0.3c0.5,0.2,0.8-0.4,0.7-0.8
						c7.4-4.7,11.1-15.8,7.4-23.9c7.2-1,14.1-1.3,21.3-1.1c-1.5,4-0.7,8.2,0,12.5c1.3,8.1,0.7,15.2-2.2,22.8
						c-0.9-0.1-1.9-0.1-2.8-0.1c-1,0-2.1-0.2-3.1,0c0.1-1,0.1-2.1,0.1-3.1c0-1.3,0.2-2.6-0.1-3.9c-0.1-0.4-0.7-0.4-0.9,0
						c0,0.1,0,0.1,0,0.2C133.9,416.6,132.6,417.8,131.4,418.9z"/>
				</g>
			</g>
		</g>
	</g>
	<g>
		<g>
			<g id="XMLID_46_">
				<g>
					<path fill="#FCC79B" d="M529.5,521.5c-7.3,1.3-15.7,0.6-23.2,0.9c-0.3,0-0.5,0.2-0.6,0.4l-0.1-0.1c5.9-8.6,13.6-12.4,24.1-12.4
						c0.6,0,0.8-1,0.2-1.1c-0.1,0-0.2,0-0.3-0.1c3.3-4.6,6-9.6,8.7-14.5c2.2-4.1,4.6-8.3,6.2-12.6c0.3,0.4,0.6,0.7,0.9,1
						c0.1,0.2,0.3,0.3,0.4,0.5c1.5,3.2,4.1,6.2,6.8,8c0,3.2-2.6,6.6-3.8,9.2c-1,2.2-1.9,4.5-2.5,6.8c-1.1,4.2-1.9,8.8-1.4,13.1
						c-1.3-1.3-0.5-5.5-0.7-7.3c-0.3-2.6-0.7-5.3-1.7-7.7c-0.2-0.5-1-0.4-1,0.1c0,0,0,0,0,0C536.8,511.3,538.4,519.8,529.5,521.5z"
						/>
				</g>
			</g>
		</g>
	</g>
	<g>
		<g>
			<g>
				<g id="XMLID_35_">
					<g>
						<path fill="#A0CCBF" d="M590.8,416.9c-0.2,0-0.2,0.4,0,0.4S591,416.9,590.8,416.9z M561.2,442.3c-0.1,0-0.1,0.1,0,0.1
							C561.2,442.4,561.2,442.3,561.2,442.3z M563.2,425.8c0.1,0.1,0.2,0.2,0.3,0c4.8-8.7,9.9-17.2,15.3-25.6c0.2,0.2,0.5,0.3,0.8,0
							c0.7-0.6,1.7-0.9,2.6-0.4c0.9,0.5,1.2,1.5,1.1,2.4c-0.9,1-1.5,2.2-2.2,3.3c-0.8,1.3-1.7,2.5-2.4,3.9c-0.1,0.2,0.2,0.5,0.4,0.3
							c0.9-1,1.6-2.2,2.4-3.3c0.2-0.2,0.3-0.4,0.5-0.7c1.5-1.9,3.1-3.8,4.3-5.8c0.1,0,0.3-0.1,0.4-0.2c1.3-1.3,3.1-2,4.8-1
							c1.2,0.6,1.8,1.9,1.9,3.2c-0.1,0-0.1,0.1-0.2,0.1c-3.5,3.5-6.6,7.8-9.4,11.8c-0.1,0.2,0.2,0.5,0.4,0.3c3.1-3.2,6.4-6.8,9-10.5
							c0,0.3,0.4,0.4,0.5,0.2c0.1-0.2,0.1-0.3,0.2-0.5c0.2,0.1,0.4,0,0.6-0.1c1.2-1,3-1.4,4.3-0.3c0.9,0.8,1.3,1.9,1.2,3
							c-0.2-0.1-0.4-0.2-0.7,0c-2,1.5-3.6,3.5-5.4,5.3c-1.7,1.8-3.5,3.6-5.1,5.5c-0.2,0.3,0.1,0.6,0.4,0.4c2-1.6,3.7-3.4,5.5-5.1
							c1.6-1.5,3.3-3,4.8-4.7c0.1,0.3,0.4,0.5,0.7,0.4c1.3-0.2,2.6-0.1,3.5,1c0.7,0.9,0.8,1.9,0.5,2.9c-0.1,0-0.2,0-0.4,0.1
							c-5.9,4.6-11.9,10.3-16.9,16c-0.1,0-0.2,0.1-0.2,0.1c-0.1,0.1-0.1,0.2,0,0.3c0,0.1,0.1,0.2,0.2,0.1c0,0,0.1-0.1,0.1-0.1
							c3.4-0.5,7.3-1.5,10.4-2.9c3.8,4.7-10.7,8.9-12.9,9.8c-3.3,1.4-6.5,2.7-9.8,4.1c0.1-0.1,0.1-0.1,0.2-0.2
							c0.1-0.1,0-0.4-0.2-0.3c-1.8,1.4-3.5,2.9-5.2,4.4c-1.5,1.4-3.3,2.8-4.6,4.4c-2.5-1.4-4.7-3-6.6-5.2c-1.9-2.3-2.7-4.8-4.1-7.3
							c1.6-1.4,3.1-2.9,4.6-4.4c1.5-1.4,3.1-2.8,4.3-4.5C563.1,426,563.1,425.9,563.2,425.8L563.2,425.8z"/>
						<path fill="#A0CCBF" d="M625.2,439.6c0.2,0,0.2-0.4,0-0.4S625,439.6,625.2,439.6z M613.3,476.5
							C613.3,476.5,613.3,476.5,613.3,476.5C613.4,476.5,613.4,476.5,613.3,476.5z M614.9,479.3c-2.9-0.9-5.4-2.4-7.8-4.2
							c1.9-3.7,3.5-8.4,4.3-12.4c0-0.2-0.2-0.3-0.3-0.1c0,0.1-0.1,0.1-0.1,0.2c0.1-3.9,0-7.7,0-11.6c0-2.2-1.6-16,4-14.7
							c0,3.4,0.5,7.4,1.4,10.7c0,0,0,0.1,0,0.1c0,0.1,0.1,0.2,0.2,0.2c0.1,0.1,0.2,0,0.3-0.2c0-0.1,0-0.2,0-0.2
							c3.2-6.9,6.3-14.5,8.2-21.8c0-0.1,0-0.2-0.1-0.3c0.8-0.6,1.8-1,2.9-0.7c1.4,0.4,2,1.6,2.3,2.9c0.1,0.3,0.4,0.4,0.6,0.4
							c-2.1,4.2-3.7,8.9-5.1,13.3c-0.1,0.3,0.3,0.5,0.5,0.2c2.2-4.4,4.5-9.2,5.9-13.9c0.1-0.3-0.1-0.5-0.3-0.6
							c1.1-0.5,2.3-0.6,3.4,0c1.4,0.9,1.6,2.6,1.2,4c-0.1,0.2,0,0.4,0.1,0.5c-0.1,0.1-0.2,0.2-0.3,0.3c-0.2,0.3,0.1,0.6,0.4,0.4
							c-2.4,3.8-4.5,8.2-6.2,12.3c-0.1,0.3,0.2,0.5,0.4,0.2c2.7-4.1,5.4-8.7,7.3-13.2c0-0.1,0-0.1,0-0.2c1.3-0.4,2.8-0.3,3.8,0.7
							c1.4,1.3,1.3,3.1,0.7,4.8c-0.1,0.2-0.1,0.3,0,0.4c-1.4,1.9-2.6,4.1-3.7,6.2c0,0.1-0.1,0.1-0.1,0.2c-0.8,1.3-1.7,2.6-2.4,3.9
							c-0.1,0.2,0.2,0.5,0.4,0.3c0.9-1,1.6-2.2,2.4-3.3c0.8-1.2,1.8-2.4,2.5-3.8c0.8-0.5,2-0.5,2.7,0.2c0.7,0.7,0.7,1.6,0.5,2.5
							c-0.1,0.3,0.1,0.6,0.3,0.7c-5.6,8.2-11.4,16.2-17.6,24c-0.1,0.1,0,0.3,0.1,0.3l0,0.1c-0.1,0-0.2,0.1-0.3,0.2
							c-2,3.5-3.4,7.8-4.8,11.7C620.1,480,617.6,480.1,614.9,479.3z"/>
					</g>
				</g>
			</g>
		</g>
	</g>
	<g>
		<g>
			<g id="XMLID_38_">
				<g>
					<path fill="#008B9E" d="M448.3,237.9c1.7-0.6,3.2,0.6,3.8,2.1c-0.4,0.1-0.9,0.2-1.3,0.3c0,0-0.1,0-0.1,0
						c-0.2-0.1-0.3-0.2-0.5-0.3c-0.3-0.2-0.6,0.3-0.3,0.5c-1.2,0.3-2.3,0.8-3.4,1.3C446.2,240.3,446.7,238.5,448.3,237.9z"/>
					<path fill="#008B9E" d="M433.2,276.1c-2.8-11.1,0.2-22.7,8.5-29.4c-5.7,8.9-6.8,21.8-1.2,30.6c-2.4,0-4.9,0-7.3-0.1
						c0.2-0.3,0.4-0.6,0.6-0.9c0.2-0.3-0.3-0.6-0.5-0.4C433.3,276,433.3,276.1,433.2,276.1z"/>
					<path fill="#008B9E" d="M452.9,241.7c14.4-2.7,27.6,7.4,30.1,21.7c-3.4,2.2-6.6,4.2-10,6c-0.3-0.2-0.8-0.2-1.1,0.2
						c-0.1,0.1-0.2,0.3-0.3,0.5c-1.5,0.8-3,1.5-4.5,2.1C467.9,260.5,462.7,248.3,452.9,241.7z"/>
					<path fill="#008B9E" d="M451.7,241.9c9.5,7.5,15.1,18.4,14.1,30.8c-2.1,0.8-4.2,1.6-6.4,2.2c-5.8,1.6-11.6,2.3-17.5,2.4
						c-2.2-5.6-3.8-10.7-3.3-16.9c0.5-5.7,2.6-10.8,5.7-15.5C446.5,243.6,448.9,242.6,451.7,241.9z"/>
					<path fill="#008B9E" d="M432.5,290.8c-2.4-0.6-7.6-0.8-7.6,3.1c0,0.8,0.3,1.5,0.7,1.9c-3.3-0.1-4.4-1.6-3.4-4.3
						c0.6-1.6,1.5-3,2.6-4.3c0.9-1.2,2-2.3,2.9-3.4c1.7-2,3.4-4,5-6.1c11.7,2.3,25.4,0.6,37.1-4.5c-3.3,6.1-6.9,12.1-12.7,16.2
						C449.1,294.9,441.3,292.8,432.5,290.8z"/>
				</g>
			</g>
		</g>
	</g>
	<g>
		<g>
			<g id="XMLID_18_">
				<g>
					<path fill="#008B9E" d="M413.2,734.4c11.7,2.3,25.4,0.6,37.1-4.5c-3.3,6.1-6.9,12.1-12.7,16.2c-8,5.5-15.8,3.4-24.6,1.3
						c-2.4-0.6-7.6-0.8-7.6,3.1c0,0.8,0.3,1.5,0.7,1.9c-3.2-0.1-4.4-1.6-3.4-4.3c0.6-1.6,1.5-3,2.6-4.3c0.9-1.2,2-2.3,2.9-3.4
						C409.9,738.5,411.6,736.5,413.2,734.4z"/>
					<path fill="#008B9E" d="M433.3,698.4c14.4-2.8,27.6,7.4,30.1,21.7c-3.4,2.2-6.6,4.2-10,6c-0.3-0.2-0.8-0.2-1.1,0.2
						c-0.1,0.2-0.2,0.3-0.3,0.5c-1.5,0.8-3,1.5-4.5,2.1C448.4,717.2,443.2,705,433.3,698.4z"/>
					<path fill="#008B9E" d="M414.3,733.1c0.2-0.3-0.2-0.6-0.5-0.4c0,0-0.1,0.1-0.1,0.1c-2.8-11,0.2-22.7,8.5-29.3
						c-5.6,8.9-6.8,21.8-1.2,30.6c-2.4,0-4.9,0-7.3-0.1C413.8,733.6,414.1,733.3,414.3,733.1z"/>
					<path fill="#008B9E" d="M432.2,698.6c9.5,7.5,15.1,18.4,14.1,30.8c-2.1,0.8-4.2,1.6-6.4,2.2c-5.8,1.6-11.6,2.3-17.5,2.4
						c-2.2-5.6-3.8-10.7-3.3-16.9c0.5-5.7,2.6-10.8,5.7-15.5C426.9,700.3,429.4,699.3,432.2,698.6z"/>
				</g>
			</g>
		</g>
	</g>
	<g>
		<g>
			<g id="XMLID_4_">
				<g>
					<path fill="#FCC79B" d="M248.9,160.9c5.1,5.5,0.2,11.3-4.7,14.2c-7,4.2-15.3,7-22.9,9.7c-6.5,2.3-13.3,5.1-20.1,6.4
						c-4.3,0.8-9.7,0.9-12.1-3.4c-2.2-4-0.2-8.7,3.7-10.5c0.8,1.5,1.5,3,2.3,4.4c-2.5,0.2-4.1,2.6-2.5,5c3,4.6,11.2,0.7,14.8-0.4
						c13.2-4.1,26.5-10.3,34.5-22c0.6-0.9-0.8-1.7-1.4-0.9c0,0.1-0.1,0.1-0.1,0.2c-1-1.9-2.1-3.8-3.2-5.6
						C241.2,157.6,245.8,157.6,248.9,160.9z"/>
					<path fill="#FCC79B" d="M239.3,164.3c0.1,0.1,0.2,0.2,0.3,0.3c-4.8,6-10.7,10.6-17.5,14.2c-4,2.1-8.2,3.7-12.4,5.2
						c-1.7,0.6-3.5,1.2-5.2,1.7c-1.2,0.4-2.3,0.7-3.5,1.1c-0.7,0.3-1.4,0.5-2,0.4c-3-7.4-6.3-15.4-10.5-22.2
						c-0.1-0.2-0.3-0.2-0.4-0.2l0-0.4c0.1,0,0.3-0.1,0.3-0.2c8.3-14,20.2-20.9,36.2-22.4c0,0,0.1,0,0.1,0
						C229.5,149.3,234.8,156.5,239.3,164.3z"/>
				</g>
			</g>
		</g>
	</g>
	<g>
		<g>
			<g id="XMLID_19_">
				<g>
					<path fill="#DF5765" d="M300.9,749c3,4.6,11.2,0.7,14.8-0.4c13.2-4.1,26.5-10.3,34.5-22.1c0.6-0.9-0.8-1.7-1.4-0.9
						c0,0.1-0.1,0.1-0.1,0.2c-1.1-1.9-2.1-3.7-3.2-5.6c4.1-0.4,8.7-0.3,11.7,3c5.1,5.5,0.3,11.3-4.6,14.3c-7,4.2-15.2,7-22.9,9.7
						c-6.5,2.3-13.3,5.1-20.1,6.4c-4.3,0.8-9.7,1-12.1-3.4c-2.2-4-0.2-8.6,3.7-10.5c0.8,1.5,1.6,3,2.3,4.4
						C300.9,744.3,299.4,746.7,300.9,749z"/>
					<path fill="#DF5765" d="M347.6,726.6c0.1,0.1,0.2,0.2,0.3,0.3c-4.8,6-10.6,10.7-17.5,14.2c-4,2.1-8.2,3.7-12.4,5.2
						c-1.7,0.6-3.5,1.2-5.2,1.7c-1.2,0.4-2.3,0.7-3.5,1.1c-0.7,0.3-1.4,0.5-2,0.5c-3-7.4-6.3-15.4-10.5-22.1
						c-0.1-0.2-0.3-0.2-0.4-0.2l0-0.4c0.1,0,0.3-0.1,0.3-0.2c8.3-14,20.1-21,36.2-22.4c0,0,0,0,0.1,0
						C337.8,711.7,343.1,718.8,347.6,726.6z"/>
				</g>
			</g>
		</g>
	</g>
	<g>
		<g>
			<g id="XMLID_37_">
				<g>
					<path fill="#FCC79B" d="M443.3,364.7c5.7-2.2,12.1-4.5,17.1-7.8c0,0,0.1-0.1,0.1-0.1l0.1,0c-0.3,0.2-0.4,0.6-0.1,0.9
						c5.2,4.5,0.2,9.6-4.1,12c-2.1,1.2-4.5,2.3-6.9,2.5c-3.3,0.2-6.6-2.2-6.5-5.4c0.4-0.1,0.8-0.5,0.5-1c-0.1-0.2-0.2-0.3-0.3-0.4
						c0-0.1,0-0.2,0.1-0.2C443.4,364.9,443.4,364.8,443.3,364.7z"/>
					<path fill="#FCC79B" d="M433.6,342.1c0.4,0.9,0.8,1.9,1.3,2.7c0.3,0.6,1.3,0.2,1.1-0.5c-2.3-5.6-4.5-12.6,0.5-17.5
						c5.5-5.3,12-0.3,15.6,4.3c5.6,7.2,7.7,16.1,7.1,25.1c-5.6,1.9-11.4,5.2-16.6,8.1c-1.8-2.8-3.8-5.5-6-7.9
						c-1.5-1.6-3.1-3-4.7-4.5c-1.1-1-2.1-2.1-3-3.3c-2.2-3.4-0.9-5.4,4-6C433.3,342.9,433.7,342.5,433.6,342.1L433.6,342.1z"/>
				</g>
			</g>
		</g>
	</g>
	<g>
		<g>
			<g id="XMLID_5_">
				<g>
					<path fill="#008B9E" d="M91.9,208.1c5.2,4.5,0.2,9.6-4.2,12c-2.1,1.1-4.4,2.3-6.9,2.4c-3.3,0.2-6.6-2.2-6.5-5.4
						c0.4-0.1,0.8-0.5,0.5-1c-0.1-0.2-0.2-0.3-0.3-0.4c0-0.1,0-0.2,0.1-0.2c0-0.1,0-0.2,0-0.3c5.7-2.2,12.1-4.5,17.2-7.8
						c0,0,0.1-0.1,0.1-0.1l0,0C91.7,207.5,91.6,207.9,91.9,208.1z"/>
					<path fill="#008B9E" d="M64.3,193.1c0.4,0.2,0.8-0.2,0.6-0.5l0.1,0c0.4,0.9,0.8,1.9,1.3,2.7c0.3,0.6,1.3,0.2,1.1-0.5
						c-2.3-5.6-4.5-12.6,0.5-17.5c5.4-5.3,12-0.3,15.6,4.3c5.6,7.2,7.7,16.1,7.2,25.1c-5.7,1.9-11.4,5.2-16.6,8.1
						c-1.8-2.8-3.8-5.4-6-7.9c-1.5-1.6-3.1-3-4.7-4.5c-1.2-1-2.2-2.1-3-3.3C58.1,195.6,59.4,193.6,64.3,193.1z"/>
				</g>
			</g>
		</g>
	</g>
	<g>
		<g>
			<g>
				<g id="XMLID_23_">
					<g>
						<path fill="#FCC79B" d="M480.9,401.2c0.2-0.1,0.3-0.3,0.4-0.5l0.7,0.3c-4.6,12.4-8.4,25.8-10.3,38.9c0-0.1,0-0.3,0-0.4
							c0-0.4-0.6-0.4-0.6,0c-0.1,1.4-0.1,2.7-0.2,4.1c-2-15-6.2-30.2-12.2-44.1C465.2,403.8,473.7,404.4,480.9,401.2z"/>
						<path fill="#FCC79B" d="M481.6,421c0.6,0.8,1.4,1.5,2.1,2.2c0.8,0.8,1.6,2,2.6,2.5c0.2,0.1,0.3,0,0.4-0.1
							c0.1,0.1,0.2,0.2,0.3,0.1c1.3-0.5,2.6-1.1,3.9-1.6c1.1-0.5,2.3-0.9,3.4-1.5c-0.4,3.2-0.3,6.7-0.2,9.9
							c-2.1-0.2-4.4,0.3-6.5,0.5c-1.9,0.2-3.7,0.4-5.6,0.7C482.5,429.7,482.3,425,481.6,421z"/>
						<path fill="#FCC79B" d="M491,423c-1.4,0.7-2.9,1.4-4.2,2.3c0,0-0.1,0-0.1,0.1c-0.5-1-1.7-1.8-2.5-2.6
							c-0.6-0.6-1.2-1.2-1.9-1.8c3.4,0.5,7.1,0.9,10.6,1C492.3,422.3,491.7,422.6,491,423z"/>
						<path fill="#FCC79B" d="M440.5,464c8.5,0.3,17.1,1.1,25.6,1.2c-1.5,1.3-2.9,2.7-4.4,4c-1.9,1.7-4,3.4-5.7,5.3
							c0-0.1-0.1-0.1-0.1-0.1c-2.1-1.8-4.7-3.2-7.1-4.7c-2.7-1.7-5.4-3.5-8.2-5c0,0,0,0-0.1,0C440.5,464.5,440.5,464.3,440.5,464z"
							/>
						<path fill="#FCC79B" d="M497.2,469.3c-1.9,1.7-4,3.4-5.7,5.3c0-0.1-0.1-0.1-0.1-0.1c-2.2-1.8-4.7-3.2-7.1-4.7
							c-2.7-1.7-5.4-3.5-8.2-5c0,0,0,0-0.1,0c0-0.2,0-0.5,0-0.7c8.5,0.3,17.1,1.1,25.6,1.2C500.1,466.5,498.7,468,497.2,469.3z"/>
						<path fill="#FCC79B" d="M502,466.6c-0.4,7.2-0.2,14.8,0.5,21.9c0,0-0.1,0-0.1,0c-8.7,0.7-17.3,0.5-26,0.3
							c0.1-7.8,0.1-15.8-0.4-23.7c2.1,1.8,4.4,3.2,6.7,4.8c2.6,1.8,5.2,3.9,8.1,5.2c0.1,0,0.1,0,0.2,0.1c0,0-0.1,0.1-0.1,0.1
							c-0.1,0.1,0,0.2,0.1,0.2c2.3-1.3,4.2-3.2,6.2-4.9C498.8,469.3,500.5,468,502,466.6z"/>
						<path fill="#FCC79B" d="M455.4,475.4c-0.1,0.1,0,0.2,0.1,0.2c2.3-1.3,4.2-3.2,6.2-4.9c1.6-1.4,3.3-2.6,4.8-4
							c-0.4,7.2-0.2,14.8,0.5,21.9c0,0-0.1,0-0.1,0c-8.7,0.7-17.3,0.5-26,0.3c0.1-7.8,0.1-15.8-0.4-23.7c2.1,1.8,4.4,3.2,6.7,4.8
							c2.6,1.8,5.2,3.9,8.1,5.2c0.1,0,0.1,0,0.2,0.1C455.5,475.3,455.4,475.4,455.4,475.4z"/>
						<path fill="#FCC79B" d="M470.8,445.5c-0.6,16.5-0.5,33.3-0.2,49.8c-5.2-0.1-10.4-0.2-15.6-0.6c-4.6-0.3-14.5,0.3-18-3.9
							c0,0,0-0.1,0-0.1c-4.7-16.1-0.4-30.8,3.4-46.6c2.9-12.2,5-25.4-0.4-37.2c-0.1-0.1-0.2-0.2-0.3-0.2l1.1-0.2
							c0,0.1,0.1,0.2,0.3,0.1c2.8-1.6,5.5-3.3,8.6-4.5c2.7-1,5.5-1.5,8.3-2.1c0.5,2.4,1.2,4.7,1.9,7c0.1,0.4,0.6,0.3,0.6-0.1
							c4,12.6,7.1,25.1,9.5,38.2C469.9,445.6,470.5,445.7,470.8,445.5z M440,464c-0.4,8.3-0.3,16.7,0,24.9c0,0.4,0.3,0.5,0.6,0.5
							c0,0.1,0.1,0.2,0.3,0.2c8.6,1.5,17.5,1.3,26.1,0.6c0.8-0.1,1-1.2,0.5-1.5c0.7-7.5,0.8-15.6,0.3-23.2c0.1-0.1,0.1-0.1,0.2-0.2
							c0.2,0,0.4,0,0.5,0c0.7,0,0.9-1.1,0.2-1.2c-0.2,0-0.4-0.1-0.5-0.1h0c-9.1-1.7-19.4-1.5-28.6-0.6c-0.4,0-0.4,0.6,0,0.6
							C439.6,464,439.8,464,440,464z"/>
						<path fill="#FCC79B" d="M480.9,420.7c0.1,0,0.2,0,0.3,0c-0.5,4.3-0.4,9.5,0.2,13.8c0.1,0.4,0.7,0.3,0.7-0.1c0-0.1,0-0.1,0-0.2
							c2.2,0,4.4-0.1,6.6-0.3c2-0.1,4,0,5.9-0.5c0.4-0.1,0.4-0.4,0.3-0.7c0.5-3.5,0.9-7.6,0.6-11.2c0,0,0-0.1,0-0.1c0,0,0,0,0-0.1
							c0-0.1,0-0.2,0-0.3c0-0.1,0-0.1,0-0.2c0-0.4-0.6-0.6-0.7-0.1c-4.4-0.7-9.3-0.7-13.7-0.7C480.7,420.1,480.6,420.6,480.9,420.7z
							 M476.3,489.6c8.6,1.5,17.5,1.3,26.1,0.6c0.9-0.1,1-1.2,0.5-1.5c0.7-7.5,0.8-15.6,0.3-23.2c0.1-0.1,0.1-0.1,0.2-0.2
							c0.2,0,0.3,0,0.5,0c0.7,0,0.9-1.1,0.2-1.2c-0.2,0-0.3-0.1-0.5-0.1c0,0-0.1,0-0.1,0c-9.1-1.7-19.4-1.4-28.5-0.6
							c-0.4,0-0.4,0.6,0,0.6c0.2,0,0.4,0,0.5,0c-0.5,8.3-0.3,16.7,0,24.9c0,0.4,0.3,0.5,0.6,0.5
							C476.1,489.5,476.2,489.6,476.3,489.6z M501.9,406.9c0.1,0.1,0.3,0.3,0.4,0.4c0,0,0,0,0,0c-4.5,12-1.6,25.4,1.8,37.4
							c4,14.4,7.8,27.8,4.8,42.6c-0.7,1.5-1.4,3.1-2.1,4.7c-1,0.6-2,1-3.1,1.3c-1.1,0.3-2.3,0.5-3.4,0.6c-3,0.4-6.1,0.6-9.1,0.8
							c-6.2,0.4-12.4,0.6-18.5,0.6c-0.3,0-0.6,0-0.9,0c0.5-17.4,0.7-35.1,0.1-52.5c0,0,0.1-0.1,0.1-0.1c3.5-14.1,6.9-28,11.5-41.8
							c2.5,1.1,5.1,2,7.6,3c3.3,1.2,6.7,2.9,10.2,3.5C501.5,407.3,501.8,407.1,501.9,406.9z"/>
					</g>
				</g>
			</g>
		</g>
	</g>
	<g>
		<g>
			<g id="XMLID_14_">
				<g>
					<path fill="#008B9E" d="M157.8,640.9c5.8-4.1,11.1-8.5,17.6-11.6c4.3-2.1,19.8-9.5,24.7-5.3l-0.2,0.2c-0.3-0.3-0.6-0.4-1-0.1
						C186.5,633.4,173,638.5,157.8,640.9z"/>
					<path fill="#008B9E" d="M200.1,624.1c0.3,0.2,0.5,0.5,0.7,0.8c0.1,0.1,0.1,0.1,0.2,0.1c4.1,8.8,9,17.2,13.2,25.9
						c4.6,9.5,8.9,19,13,28.7c7.8,18.5,14.2,37.5,20.9,56.5c-0.1,0-0.2,0-0.3,0.1c-4.6,3-8.7,4.9-14.2,5.5
						c-5.7-12.7-13.2-24.8-19.8-37c-5.9-10.9-11.6-22-17.7-32.8c-0.7-2.3-1.5-4.7-2.3-7c-0.2-0.6-1-0.3-0.9,0.2
						c0.2,0.8,0.4,1.6,0.6,2.4c-0.1-0.1-0.1-0.2-0.2-0.4c-0.2-0.4-0.8-0.1-0.6,0.3c0.6,1.1,1.1,2.2,1.7,3.4
						c3.2,11.8,6.9,23.5,10.4,35.3c3.9,13.2,7.7,26.5,11.9,39.7c-0.1,0-0.1,0-0.1,0.1c-2.1,1.7-3.8,3.5-6.2,4.8
						c-2.3,1.3-4.8,1.9-7.3,2.5c-8.9-18.2-17.4-36.5-25-55.3c-7.5-18.5-13.5-37.5-20.2-56.3c15.1-0.7,30.1-7,42-16.3
						c0.4-0.3,0.3-0.8,0-1.1L200.1,624.1z"/>
				</g>
			</g>
		</g>
	</g>
	<g>
		<g>
			<g id="XMLID_34_">
				<g>
					<path fill="#008B9E" d="M679.6,404.9c14.5-4.4,32-8.5,45.8,0c-8,2.4-15,4.9-23.6,4.8C693.8,409.5,687,407.2,679.6,404.9z"/>
					<path fill="#008B9E" d="M702,411.7c-0.1,2.8,1.5,17.3-1.9,18.7c-0.3-6.3-0.8-12.5-1.2-18.8C699.9,411.6,700.9,411.7,702,411.7z
						"/>
					<path fill="#008B9E" d="M677.6,405c0.1,0.2,0.3,0.3,0.5,0.3c3.9,2.5,8.7,4.3,13.9,5.3c-0.1,0.1-0.2,0.2-0.3,0.4
						c-0.8,3.2-1.9,6.1-4.9,7.9c-3.5,2.1-7.5,1.5-10.9-0.4c-0.2-0.1-0.5,0.1-0.5,0.3l-0.9-0.2c0.8-4.7,1.6-9.4,2.4-14.1
						C677.2,404.7,677.4,404.8,677.6,405z"/>
					<path fill="#008B9E" d="M726,406.3c0.6,3.8,1.3,7.7,1.9,11.5c-0.1-0.2-0.4-0.4-0.7-0.3c-3.1,0.9-5.8,2.4-9.1,1.5
						c-3.4-0.9-6-4.8-4.4-8.2c0-0.1,0-0.1,0-0.2C718.3,409.9,722.5,408.4,726,406.3z"/>
					<path fill="#008B9E" d="M675.5,418.9c6.3,5.1,17.7,1.1,17.4-7.8c0-0.1-0.1-0.3-0.1-0.4c1.8,0.3,3.7,0.6,5.5,0.7
						c-0.5,6.3-0.3,13.2,1,19.3c0.1,0.3,0.4,0.3,0.6,0.2c2,0.1,2.8-1.3,3.1-3.3c0.7-5.1,0.1-10.9-0.1-16c3.5,0,7-0.3,10.3-0.8
						c-1.5,2.9-0.2,6.4,2.5,8.3c3.4,2.4,8.9,1.8,12.2-0.5c0.2-0.1,0.3-0.3,0.3-0.4c5.6,35.9,9.6,71.8,13.5,107.9c-0.1,0-0.2,0-0.4,0
						c-8,2.6-15.4,3.1-23.6,2.6c-1-13.5-3.8-27.1-6.4-40.3c-2.7-14-5.5-28.2-9.7-41.8c0-0.3,0-0.7,0.1-1c0-0.2-0.3-0.3-0.3,0
						c0,0.1,0,0.2-0.1,0.3c-0.2-0.1-0.5,0.1-0.5,0.4c0.1,0.3,0.1,0.6,0.2,0.9c-2.7,13.5-4.2,27.4-6.1,41
						c-1.9,13.2-4.4,26.4-5.5,39.7c0,0-0.1,0-0.1,0c-9.3,1.1-16.5,1.3-25.5-2.1c-0.1,0-0.2,0-0.3,0c1.3-19.9,1.9-39.8,4.1-59.7
						c1.8-16,4.4-31.7,7.1-47.5l0.9,0.2C675.4,418.8,675.5,418.9,675.5,418.9z"/>
				</g>
			</g>
		</g>
	</g>
	<g>
		<g>
			<g id="XMLID_44_">
				<g>
					<path fill="#A0CCBF" d="M559.7,656.2c-3.6,1.3-6.5,2.7-10.5,2.8c-3.9,0-7.4-1.1-10.8-3.1c0-0.1,0.1-0.3,0.1-0.5
						c7.1-4.3,14.6-4.4,21.9-0.4c0,0.6,0.1,1.1,0.1,1.7l-0.2,0C560.4,656.4,560.1,656.1,559.7,656.2z"/>
					<path fill="#A0CCBF" d="M570.7,750.3c-5.2,4.2-16,3.8-22.4,3.9c0,0-0.1,0-0.1,0l0-1.4c0.3,0,0.6-0.2,0.6-0.6
						c0.2-15.4,0.1-30.8,0.1-46.3c0-15.2,0.7-30.6-0.4-45.7c4.3,0.5,8.6-0.5,11.8-3.2c0.1-0.1,0.2-0.2,0.2-0.3l0.2,0
						c0.1,2.6,0.3,5.2,0.9,7.6c0.1,0.4,0.5,0.4,0.8,0.2c9.8-2.3,15.2,6.7,17.8,14.8c2.3,7,4.1,14.2,6.2,21.3
						c4.1,14.2,7.8,28.7,12.5,42.8c0,0,0,0-0.1,0.1c-4.7,9.5-13.8,1.1-16-5.1c-1.4-3.9-2.4-8.1-3.5-12.1c-2.6-9.5-5.4-19-8.2-28.4
						c-0.2-0.5-1-0.3-0.8,0.2c0,0.1,0,0.2,0.1,0.2c0,0,0,0,0,0c0.5,8.4,1.5,16.8,2.3,25.2c0.4,4.5,0.9,9,1.3,13.6
						C574,741.8,574.9,746.9,570.7,750.3z"/>
					<path fill="#A0CCBF" d="M527.6,703.8c-0.1,0.7-0.2,1.4-0.3,2.1l-0.5-0.1c0-0.4-0.7-0.6-0.8-0.1c-3.8,14.3-8.9,27.7-14.3,41.4
						c-0.1,0-0.2-0.1-0.3,0c-3,1.3-6.6-1.2-7.5-4.2c-0.6-2.1-0.1-4.6,0.3-6.7c0.6-3.4,1.4-6.8,2.1-10.2c1.5-6.9,3.1-13.7,4.8-20.6
						c3.5-13.7,7.8-27,11.8-40.5c0-0.1,0-0.2,0-0.2c2.6-1.3,5.2-2.4,8.1-3.1c2.2-0.6,4.5-0.7,6.7-1c0.1,0.1,0.3,0,0.4-0.1
						c0.3,0,0.6-0.1,0.9-0.1c0.6-0.1,0.4-1-0.1-1c-0.2,0-0.5,0-0.7,0c-0.1-1,0-1.9,0.1-2.8c2.7,2,6.2,3.3,9.8,3.8
						c-1.2,15.1-0.4,30.6-0.5,45.7c0,15.4-0.2,30.8,0,46.3c0,0.4,0.3,0.6,0.6,0.6l0,1.4c-8,0.1-14.9-1.5-21.7-5.6
						c0.8-15,0.8-29.9,2-44.9C528.5,703.2,527.7,703.2,527.6,703.8z"/>
				</g>
			</g>
		</g>
	</g>
	<g>
		<g>
			<g id="XMLID_30_">
				<g>
					<path fill="#A0CCBF" d="M625.2,189.3c-2,3.9-5.1,6.9-10,6.6c-4.8-0.3-8.1-4.1-9.1-8.5c3,0.5,6.1,0.5,9,0.8
						C618.5,188.4,621.9,189,625.2,189.3z"/>
					<path fill="#A0CCBF" d="M632.8,289.4c-0.1-0.1-0.3-0.2-0.5-0.3c-16.9-2-34.1-4.7-51.2-5.4c2.8-20.8,4.7-41.9,6.3-62.9
						c0.1-0.2,0.1-0.3,0.2-0.5c0.2-0.5-0.5-0.7-0.8-0.3c-1.8,2.3-3.1,5.4-4.4,8.2c-2.4-2-5.3-3.5-7.9-5.2c-3.1-2-6.2-4-9.5-5.9
						c3.1-3.8,6.1-7.8,9-11.7c3.5-4.6,7.5-9.1,10.4-14.2c0-0.1,0-0.1,0-0.2h0c3.3-1.2,6.6-2.2,10.1-2.8c3.6-0.7,7.1-0.6,10.7-0.9
						c1,11.7,19.2,13.5,21.5,2c0,0,0.1,0,0.1,0c0.1,0,0.2,0,0.2,0c6.2,3.6,13.3,7.3,20.1,9.6c2.5,4.9,5.2,9.7,7.6,14.6
						c2.2,4.7,3.9,9.6,6,14.2c-6.4,2.2-12.6,5.3-18.7,8.2c-0.5-1.5-1.1-2.9-1.7-4.3c-0.5-1.3-1-2.8-1.8-4c-0.3-0.5-1.1-0.2-1,0.4
						c0,0,0,0.1,0,0.1c-0.1,0-0.1,0.1-0.1,0.2c-1.2,10.1-1.7,20.3-2.4,30.5c-0.7,9.7-1.9,19.6-1.8,29.3c0,0,0,0,0,0
						C633.1,288.5,632.9,289,632.8,289.4z"/>
				</g>
			</g>
		</g>
	</g>
	<g>
		<g>
			<g id="XMLID_47_">
				<g>
					<path fill="#DF5765" d="M611.3,532.8c-1.3,2.1-3,3.7-4.5,5.7c0,0-0.1-0.1-0.1-0.1c-2.5-1.1-5.2-1.6-7.6-3
						c-2.4-1.5-4.4-3.4-6.2-5.6c0.1-0.2,0.1-0.5,0-0.6c3.8-0.6,7.3-1.9,11.2-2.4c3.5-0.5,6.9-0.3,10.3-0.4
						C613.2,528.4,612.6,530.8,611.3,532.8z"/>
					<path fill="#DF5765" d="M606.5,539.3c0.1,0.1,0.2,0.1,0.3,0c2.3-1.3,4.1-3.7,5.6-5.8c1.4-2,3.1-4.7,3.3-7.2c0.1,0,0.3,0,0.4,0
						c0.4,0,0.6-0.4,0.6-0.7c8.5-0.7,16.2,0.4,24.7,2.2c5.9,9,11,17.9,15,28v0c-5.4,2.1-11.3,4.8-16.1,7.9c0,0,0,0,0,0
						c-0.5-1.9-1-3.8-1.5-5.7c-0.1-0.3-0.6-0.2-0.5,0.2c2,10.1,4.4,20,6.6,30c2.2,9.6,4,19.5,6.8,29c-0.2-0.2-0.5-0.2-0.8,0
						c-7.7,4.4-15.6,8.1-24.2,10.3c-7.6,2-18.3,4.8-25.8,1.2c0-0.1,0-0.1,0-0.2c-1.5-10.2-4.2-20.3-6.5-30.3
						c-2.3-10.1-4.3-20.2-7-30.2c-0.1-0.3-0.6-0.2-0.5,0.2c0.5,2.8,1,5.6,1.6,8.4c-0.1,0-0.2-0.1-0.3-0.1
						c-5.6-0.6-11.6-0.3-17.3-0.1c-0.7-10.5-0.2-20.6,0.1-31.1c0-0.1,0-0.1,0-0.2c2.8-3.8,5.8-7.1,9.8-9.8c3.6-2.4,7.6-3.4,11.5-5
						C595.2,534.8,601,539.5,606.5,539.3C606.5,539.3,606.5,539.3,606.5,539.3z"/>
				</g>
			</g>
		</g>
	</g>
	<g>
		<g>
			<g id="XMLID_26_">
				<g>
					<path fill="#DF5765" d="M324.9,175.2c2.4,9.6,17.6,14.1,23.4,5.1c7.3,2.7,15.5,5.6,19.9,12.3c5.4,8.2,2.5,20.9,2,30
						c-1.1,20.9-2.4,41.8-3.3,62.7c0,0-0.1-0.1-0.2-0.1c-4.4-0.7-8.4-1.6-12.5-3.2c0,0,0,0,0,0c0.7-10.3,0.6-20.6,0.9-30.9
						c0.2-8.3,0.6-16.6,0.5-24.9c0-2,0-4-0.1-6c0-0.3-0.4-0.3-0.5,0c-0.2,1.9-0.3,3.8-0.4,5.7c0,0.1-0.1,0.1-0.1,0.2
						c-1.9,8.4-2.6,17.3-3.7,25.9c-1,7.5-2.3,15.1-3,22.8c-0.4,0-0.8,0.5-0.6,1c-0.7,3.2-2.3,4.5-4.7,4c-1.1-0.1-2.1-0.3-3.1-0.4
						c-2-0.3-3.9-0.6-5.9-0.9c-4.3-0.6-8.5-1.2-12.8-1.8c-7.6-1.1-15.2-2.2-22.8-2.9c-0.1,0-0.2,0-0.2,0l0-0.3
						c0.2,0,0.4-0.1,0.4-0.4c2-9.9,3-20.1,4.4-30.2c1.3-9.4,2.8-18.9,3.8-28.4c0-0.1,0-0.1-0.1-0.2c0.2-0.7,0.3-1.5,0.5-2.2
						c0.1-0.6-0.8-0.9-1-0.3c-3.1,9.7-5.4,19.8-8,29.7c-2.5,9.8-5.5,19.7-7.3,29.7c-1.9-0.3-3.9-0.2-5.8-0.3
						c-2.2-0.2-4.4-0.5-6.6-0.7c0,0,0-0.1,0-0.1c2.3-19.9,5.9-39.5,11.3-58.8c2.4-8.6,4.4-18.9,10.6-25.6c6.4-6.9,15.8-8,24.5-9.9
						C324.8,175.7,324.8,175.4,324.9,175.2L324.9,175.2z"/>
				</g>
			</g>
		</g>
	</g>
	<g>
		<g>
			<g id="XMLID_16_">
				<g>
					<path fill="#A0CCBF" d="M282.8,603.2c0.1-2.3,0.1-4.5,0.1-6.8c0-3.6,0.2-7.3,0-10.9c0.2-0.1,0.4-0.4,0.4-0.6c0.2,0,0.5,0,0.7,0
						c0.6-0.1,1.3,0,1.9-0.2c0,0,0,0,0,0.1c-0.6,8.4-0.8,17-0.5,25.4c-2.3-1.1-3.2-2.8-2.7-5C282.8,604.5,282.8,603.9,282.8,603.2z"
						/>
					<path fill="#A0CCBF" d="M296.4,573.2c-1.8,1.6-3.4,3.6-5,5.3c-1.6,1.7-3.5,3.5-4.7,5.5c0,0.1,0,0.1,0,0.2l-0.2,0.3c0,0,0,0,0,0
						c-0.1-0.1-0.2,0-0.3,0c0.2-0.3,0-0.6-0.3-0.7c-0.6-0.1-1.3,0.1-2,0.2c-0.3,0-0.6,0.1-1,0.2c-0.1-0.1-0.1-0.2-0.1-0.2
						c0-0.1,0-0.2,0-0.3c0-0.2-0.2-0.3-0.4-0.2c-1.3-1.8-2.7-3.5-4.1-5.3c-1.5-1.9-2.9-4.1-4.9-5.6c0,0,0-0.1,0.1-0.2
						c0,0,0-0.1,0-0.1l0.6-0.1c0,0.1,0.1,0.2,0.2,0.2C281.3,573.6,289.4,573.8,296.4,573.2z"/>
					<path fill="#A0CCBF" d="M281.7,584.8c-1.1,1.1-1.9,2.5-3.1,3.6c-1.2,1.1-2.5,2-3.8,3c-3.4-6.2-4-11.5-1.4-18.2
						c1,2.1,2.6,4,4,5.8C278.8,581,280.2,583,281.7,584.8z"/>
					<path fill="#A0CCBF" d="M297.8,573.3c1.1,6.3,0.8,12.2-2.1,18c-1.2-1.3-2.8-2.3-4.2-3.3c-1.6-1.2-3.2-2.5-4.9-3.5l0.2-0.3
						c0,0,0.1,0,0.1,0c2.1-1.4,3.8-3.4,5.5-5.2C294.3,577.2,296.3,575.4,297.8,573.3C297.8,573.3,297.8,573.3,297.8,573.3z"/>
					<path fill="#A0CCBF" d="M300.2,579.8c5.2,3.4,11,6,16.5,8.9c5.3,2.8,11.2,5.2,13,11.4c-1.3,2.2-2.3,4.6-3.6,6.8
						c-1.5,2.4-3.4,6.2-5.8,7.8c-4,2.7-6.2-3.8-10.3-3.7c-0.2,0-0.3,0.1-0.3,0.3c-0.1,0.1-0.2,0.2-0.2,0.4
						c-1.4,10.4-0.5,21.5,0.3,31.8c0.8,9.6,1.8,19.6,4.5,28.8c-0.1,0-0.1,0-0.1,0c-4.6,2.1-8.7,4.6-13.6,6c-5,1.4-10.3,2.1-15.5,2
						c-10.4-0.2-19.7-3.6-28.6-8.8l0.1-0.1c0.3,0.2,0.9,0.2,1-0.3c6.6-19.1,8.4-42.2,3.3-61.8c0,0,0,0,0-0.1c0,0,0-0.1,0-0.1
						c0,0,0,0-0.1-0.1c-0.1-0.1-0.2-0.1-0.4,0c-1.8,0.7-3.5,1.8-5.2,2.8c-1.4,0.8-2.9,1.5-4.2,2.4c-1.5-3-3.6-5.7-5.4-8.4
						c-1.5-2.3-3-4.7-4.7-6.9c2.6-2.5,5.2-5,7.7-7.6c2.4-2.4,5.2-4.8,7.3-7.5c2.6-0.6,5-1.5,7.5-2.3c2.3-0.7,4.8-1.2,6.9-2.5
						c0.1-0.1,0.2-0.2,0.3-0.4l0.1,0c-0.9,5,0.3,10.6,3.8,14c0.4,0.4,1.1-0.1,0.8-0.6c0,0-0.1-0.1-0.1-0.2c1.5-0.6,2.8-1.6,4-2.7
						c1-0.8,2.2-1.9,3-3.1c-0.3,3.7-0.3,7.5-0.4,11.2c-0.1,3.7-0.9,8.2,0,11.8c0.5,2.1,2.4,3.5,4,2.4c0.2,0.1,0.6,0,0.6-0.4
						c0-0.1,0-0.1,0-0.2c0.1-0.1,0.1-0.2,0.2-0.3c0.2-0.3,0.1-0.5-0.1-0.7c0.5-8.2,0.5-16.7,0.1-24.9c1.4,1.3,2.9,2.4,4.4,3.6
						c1.4,1.1,2.8,2.5,4.3,3.3c0,0,0.1,0,0.1,0c0,0.6,0.9,1,1.2,0.4c2.1-4.1,3.2-8.7,3-13.2l0.4,0C300,579.5,300,579.7,300.2,579.8z
						"/>
				</g>
			</g>
		</g>
	</g>
	<g>
		<g>
			<g id="XMLID_1_">
				<g>
					<path fill="#DF5765" d="M165.5,81c0.8,8.2-2.4,16.3-5.1,24c-2.7,7.6-5.6,15.2-8.6,22.8c-3,7.5-6.7,14.8-9.5,22.3
						c-3.6-2.1-8.2-3.5-12.2-4.8c2.8-5.4,4.9-11.3,6.8-16.7c2.6-7.3,4.9-15.3,5.7-22.8c0,0,0,0,0,0c0.8-2.1,1.6-4.1,2.3-6.2
						c0.2-0.6-0.8-1.1-1.1-0.5c-0.3,0.7-0.7,1.3-1,2c-3.5,7.2-6.4,14.7-10,21.9c-3.9,7.9-8.3,15.4-12.5,23.1c0,0,0,0.1,0,0.1
						c-6.1-3.3-12.8-5.8-19.2-8.6c5.8-11.7,10.7-23.8,16.4-35.6c5.7-11.7,12-23.2,17.8-34.8h0c0.1-0.1,0.2-0.2,0.2-0.4l0.1,0
						c-0.1,0.3,0.1,0.6,0.4,0.6c5.4,1.3,10.6,2.5,15.8,4.5c0.3,0.1,0.7-0.1,0.8-0.4c0.6-3.9,1.1-7.8,1.1-11.7
						C159.3,65.9,164.8,72.5,165.5,81z M151.9,81.3c0.6-0.2,0.6-1.2-0.2-1.2c-0.4,0-0.7,0.1-1.1,0.1c-3.5-2.1-7.2-3.9-10.8-5.7
						c0.1-0.3,0.2-0.6,0.3-0.9c0.1-0.2-0.3-0.4-0.4-0.2c-0.1,0.2-0.2,0.4-0.3,0.6c0-0.1-0.1-0.2-0.1-0.3c-0.2-0.3-0.7-0.1-0.6,0.2
						c0.1,0.3,0.2,0.5,0.3,0.8c-2.3,4-4.6,8.5-6,12.7c-0.1,0.4,0.5,0.7,0.7,0.3c0.1-0.1,0.1-0.2,0.2-0.3c1.7,1.2,3.6,2.1,5.4,3
						c1.6,0.9,3.3,2,5.1,2.5c0.4,0.1,0.6-0.3,0.5-0.6c0.1,0,0.1,0,0.2-0.1c2.2-3.3,4.6-7.1,6.1-10.8v0c0,0,0,0,0,0
						C151.4,81.5,151.7,81.4,151.9,81.3z"/>
					<path fill="#DF5765" d="M152.8,57.4C152.8,57.4,152.8,57.5,152.8,57.4c-0.3,0-0.7,0.5-0.4,0.8c0.1,0.1,0.2,0.3,0.4,0.4
						c0,1.3-0.1,2.6-0.2,3.9c-0.1,1.3-0.2,2.5-0.4,3.8c-0.2,2,0.2,3.7-1.8,3.7c-1.1,0-2.6-0.9-3.6-1.3c-1.2-0.4-2.4-0.7-3.6-1.1
						c-2-0.5-4-1-6-1.2c5.1-2.4,10.6-5.4,15-9C152.4,57.5,152.6,57.5,152.8,57.4z"/>
					<path fill="#DF5765" d="M148.7,80.6c-0.3,0.1-0.6,0.1-0.8,0.2c-0.9,0.2-3.6,1.3-4.5,1c-1.1-0.3-1.5-2.3-1.9-3.3
						c-0.4-1-0.8-2-1.3-2.9C143,77.3,145.8,79.1,148.7,80.6z"/>
					<path fill="#DF5765" d="M149.9,81.9c-2.1,3.1-3.7,6.9-5.2,10.3c0,0,0,0,0,0.1c-1.6-1.3-3.8-2-5.7-2.9c-1.6-0.7-3.2-1.6-4.9-2.2
						c2.1-3.5,3.8-7.5,5.3-11.4c0.9,2.3,1.9,4.6,2.6,7c0.1,0.4,0.5,0.5,0.8,0.5C145.1,82.9,147.6,82.6,149.9,81.9z"/>
					<path fill="#DF5765" d="M151.2,56.4c-2.3,1.5-4.4,3.3-6.7,4.8c-2.7,1.8-5.5,3.5-8.3,5.2c-0.3,0-0.4,0.2-0.5,0.4l-0.1,0
						c0-3.3-0.7-6.5-1.2-9.7c-0.5-3.1-0.8-6.2-1.5-9.2C140.1,47.9,146.6,50.2,151.2,56.4z"/>
					<path fill="#DF5765" d="M142.4,152.1c0.1-0.1,0.1-0.2,0.2-0.3c-1.7,4-3.5,9.3-9.1,6c-2.8-1.6-5.4-3.5-8.2-5.1
						c0.1,0,0.2-0.1,0.2-0.1c1.6-2,2.9-4.2,4.2-6.6c3.7,1.9,8,4.2,12.1,5.3c-0.1,0.1-0.1,0.3-0.1,0.4
						C141.6,152.3,142.2,152.5,142.4,152.1z"/>
					<path fill="#DF5765" d="M134.4,65.3c0.1,0.4,0.2,0.9,0.3,1.3c-6.9,11.4-12.8,23.5-18.6,35.5c-5.5,11.4-11.4,23-15.7,35
						c-4.9-1.9-21.4-6.8-19-13c0.1-0.2-0.1-0.3-0.2-0.3c3.7-6.2,6.7-12.9,9.9-19.3c3.5-7,7.2-13.9,10.3-21.1c0.2-0.5-0.5-1-0.8-0.5
						c-0.1,0.2-0.2,0.3-0.3,0.5c-0.2-0.2-0.6-0.3-0.8-0.1c-9.4,10.3-17.5,23.2-24,35.9c-2.7-3.6-7.5-6.2-12-7.9c0,0,0,0,0,0
						C69.2,99.6,74.1,87.9,81.4,77c3.8-5.7,7.9-11.1,12.4-16.2c4.3-4.9,9.6-9.2,13.7-14.3c0-0.1,0.1-0.1,0.1-0.2
						c7.3-0.9,13.1-0.2,20.2,1.7c0.2,0.1,0.5,0,0.6-0.2c0.4,0,0.7-0.1,1.1-0.1c-3.1,2.3-5.9,5.2-8.8,7.7c-0.3,0.3-0.2,0.8,0.1,1
						c4.2,2.9,8.6,6.6,13.3,8.7C134.2,65.3,134.3,65.3,134.4,65.3z M127.2,78.3c0.2-0.6,0.5-1.3,0.2-1.9c-0.2-0.3-0.5-0.3-0.8-0.1
						c-0.5,0.4-0.4,1.3-0.4,1.9C126.2,78.7,127.1,78.8,127.2,78.3z M123.1,85.4c0.2-0.4-0.1-0.9-0.6-0.7c-0.5,0.2-0.7,0.5-1,0.9
						c-0.3,0.3,0.1,0.9,0.5,0.7C122.4,86,122.9,85.8,123.1,85.4z M118.2,93.9c0.4-1.5-1.9-2.5-2.7-1.1c-0.8,1.3,1.1,2.8,2.2,1.7
						c0-0.1,0.1-0.1,0.1-0.2C117.9,94.3,118.1,94.1,118.2,93.9z M114.2,101.3c0.1-0.2,0-0.5-0.2-0.6c-0.1-0.1-0.3-0.2-0.5-0.3
						c-0.2-0.1-0.4,0-0.5,0.2c-0.1-0.1-0.2-0.1-0.3,0c-0.6,0.3-0.6,1.1-0.1,1.5C113.3,102.6,114,102,114.2,101.3z M110.2,109.1
						c0.3-0.1,0.3-0.5,0.3-0.7c0,0,0-0.1,0-0.1c0-0.2-0.3-0.4-0.5-0.4c0,0-0.1,0-0.1,0c-0.3,0-0.6,0.2-0.6,0.5c0,0,0,0.1,0,0.2
						c-0.1,0.5,0.4,0.9,0.8,0.6C110.1,109.1,110.1,109.1,110.2,109.1z M105.9,117.2c0.3-0.3,0.1-0.7-0.2-0.9
						c-0.7-0.3-1.4,0.3-2.1,0.6c-0.3,0.2-0.2,0.7,0.2,0.7C104.5,117.6,105.4,117.7,105.9,117.2z M101.8,125.3c0.3-0.5,0-1.1-0.5-1.3
						c-0.2-0.1-0.4,0.1-0.5,0.2c0,0-0.1,0-0.2,0c-0.8,0.1-0.5,1.4,0.1,1.6C101.2,126,101.6,125.7,101.8,125.3z"/>
					<path fill="#DF5765" d="M133.2,57.2c0.3,2.2,0.5,4.5,0.9,6.8c-3.4-3.1-7.9-5.5-11.8-8c3-2.6,6.3-5.2,8.8-8.1c0.3,0,0.7,0,1,0
						C132.3,50.9,132.9,54,133.2,57.2z"/>
					<path fill="#DF5765" d="M74.9,120.1c0,0,0.1,0,0.1,0.1c-0.8,1.6-1.6,3.2-2.3,4.7c-0.1,0.2,0,0.3,0.1,0.4
						c-0.2,0.3-0.4,0.6-0.7,0.9l-0.3-0.3c0.2-0.3,0.1-0.7-0.3-0.9c-3.6-1.5-7.5-1.1-10.6-4.1c-3-3-3.5-7.3-0.4-10
						c2.4,1.1,4.8,2.3,7.1,3.8C70.1,116.3,72.3,118.6,74.9,120.1z"/>
				</g>
			</g>
		</g>
	</g>
	<g>
		<g>
			<g id="XMLID_6_">
				<g>
					<path fill="#008B9E" d="M201.1,224.9c-0.5,7.4-4.3,15-11.8,17.4c-6.7,2.2-13.5-0.5-17.6-6c0-0.1,0.1-0.2,0.1-0.3
						C182.5,238.3,194.3,233.1,201.1,224.9z"/>
					<path fill="#008B9E" d="M254.2,312.1c-2,1.1-3.9,2.3-5.8,3.5c-1.7,1.1-3.8,2-5.1,3.6L243,319c0-0.1,0-0.1,0-0.2
						c-4.2-11.8-9.8-23.2-14.4-34.9c-4.4-11.1-7.8-22.8-12.7-33.7c-0.3-0.6-1.2-0.2-1,0.4c3,12.1,8.3,24,12.9,35.5
						c3.5,8.7,7,17.8,11.2,26.3c-7.8,2.5-15.3,6.4-23.1,9.1c-7.9,2.7-16.1,4.5-24.1,6.9c-1.9-9.6-4.5-19-7.2-28.4
						c-3.1-10.7-6.3-21.6-10.8-31.7c-0.3-0.6-1.3-0.2-1.1,0.5c3.4,10.9,7.5,21.6,10.8,32.6c3.1,10.3,5.6,20.6,8.2,31
						c0,0-0.1,0-0.1,0.1c-3.3,2.5-6.7,3.8-10.6,5c-4-14.8-9.2-29.3-13.2-44.1c-4.1-15.1-7.5-30.3-10.9-45.5c0,0,0,0,0,0
						c2-2.6,3.9-5,6.6-7c2.4-1.7,5.2-2.4,7.6-3.8c3.3,6.5,11.9,9.2,18.6,7c7.8-2.5,12.5-10.5,12.9-18.4c3.1,0.9,6.6,0,9.8-0.2
						c1.5,0.1,3.1,0.2,4.6,0.3c0.5,0.2,1.1,0.4,1.6,0.7c0,0.1,0,0.1,0.1,0.2c6.7,14.4,14.8,28.1,20.9,42.9
						C245.3,283.3,249.6,297.7,254.2,312.1z"/>
				</g>
			</g>
		</g>
	</g>
	<g>
		<g>
			<g id="XMLID_24_">
				<g>
					<path fill="#A0CCBF" d="M399.4,318.6c1.2,1,2.5,1.9,1.8,3.3c-0.5,1.2-2.1,2.6-2.9,3.7c-1.8,2.4-3.7,5-4.9,7.8c0,0,0,0,0,0
						c-0.2-0.4-0.7,0-0.6,0.3c7.7,16.3-16.6,24.8-14.5,40.3c0,0,0,0,0,0c0,0.1-0.1,0.1-0.1,0.2v0c-0.3,0.3-0.6,0.7-0.9,1.1
						c-6.1-3.6-13-6.1-19.4-8.9c-5.6-2.5-11.3-5.2-17.1-7.3c10.9-12.2,3.2-33.1,19.2-42.1c0.3-0.1,0.1-0.6-0.2-0.5
						c-0.1,0-0.1,0.1-0.2,0.1c1.3-4,1.9-8.7,2.3-12.9c0-0.1,0-0.1,0-0.1c1,0.1,2.1,0.2,3.1,0.3c-1.2,4.4-2.8,9.3-3.1,13.9
						c0,0.1,0,0.1,0,0.2c-0.2,0.2-0.2,0.5,0.1,0.7c4.9,3,7.3,8.5,12.3,11.3c4.5,2.5,10.5,1.8,15.2,0c0.1,0,0.2-0.1,0.3-0.2l0.1,0.1
						c-0.2,0.3-0.4,0.6-0.6,0.9c-0.2,0.3,0.2,0.6,0.4,0.3c1.9-2.1,3.6-4.4,5.3-6.6C396.6,322.4,398.3,320.6,399.4,318.6z"/>
					<path fill="#A0CCBF" d="M370.6,423.1c-0.2,0.1-0.4,0.1-0.5,0.2c0,0-0.1,0-0.1,0.1c0-0.3-0.5-0.3-0.5,0
						c-0.7,5-1.3,10.3-1.4,15.4c0,0.1,0.1,0.2,0.1,0.3l-0.2,1.5c-4.6-0.7-9-1.5-13.4-2.5c2-5.3,3.6-10.8,5-16.3c0,0,0,0,0-0.1
						C363.2,422.3,366.9,422.9,370.6,423.1z"/>
					<path fill="#A0CCBF" d="M358.7,421.4L358.7,421.4c-1.9,5.4-3.7,10.8-5,16.4c-4-0.9-7.9-1.9-11.8-3.2c2.4-4.5,4.3-9.4,6.1-14.2
						c0.1-0.2,0-0.3-0.2-0.4l0.4-1.4C351.7,419.7,355.2,420.7,358.7,421.4z"/>
					<path fill="#A0CCBF" d="M307.7,397.6c1.9,1.6,3.9,3.1,5.9,4.5c-3.1,4.3-6.1,9-8.6,13.7c-0.1,0.1,0,0.2,0,0.3l-0.1,0.1
						c-2.5-2.2-4.7-4.8-6.3-7.9c1.3-1.2,2.5-2.5,3.6-3.7c1.9-2,3.7-3.9,5.4-6c0.2-0.3,0.1-0.6-0.1-0.7
						C307.7,397.9,307.7,397.7,307.7,397.6z"/>
					<path fill="#A0CCBF" d="M314.3,402.6c1.6,1.1,3.3,2.1,4.9,3.1c-2.7,5-5.5,10-7.7,15.3c-2.3-1.4-4.6-3-6.5-4.8l0.1-0.1
						c0.1,0.1,0.3,0.1,0.4,0C308.7,411.8,311.7,407.2,314.3,402.6z"/>
					<path fill="#A0CCBF" d="M379.5,386.8c0,2,0.1,4-0.2,6c-0.2,2,0.4,4.2-2,4.1c-0.3,0-0.5,0.2-0.5,0.4c-10.4-1.6-20.1-5.8-29.7-10
						c-8.9-3.8-16.5-8.5-23.8-14.7c-0.2-0.6-0.5-1.1-0.8-1.6c2.4-3.1,4.8-6,8.1-8.3c2.9-2,6.1-3.1,9.4-4.4c0,0-0.1,0.1-0.1,0.1
						c0,0,0,0.1-0.1,0.1c0,0,0,0,0,0c-0.2-0.1-0.4,0.3-0.2,0.4c0.1,0.1,0.2,0.1,0.3,0.2c0.1,0.1,0.3,0.2,0.4,0.2
						c6,3.4,12.5,6.2,18.8,9.1c6,2.8,12,6.1,18.2,8.1c0.6,0.2,1-0.6,0.7-1c0.2-0.1,0.3-0.3,0.5-0.5
						C378.9,379,379.4,382.9,379.5,386.8z"/>
					<path fill="#A0CCBF" d="M378.3,408.8c-0.1,0.1-0.3,0.2-0.4,0.3c-6.2,2.2-12.4,0-18.4-2.3c-6.4-2.5-12.8-5-19.2-7.4
						c-10.6-4.1-22-7.5-27.5-18.1c1.6-0.8,3.1-2,4.5-3c1.9-1.3,3.9-2.5,5.6-4c6.8,6.8,16.3,11.2,25,14.9c9.1,3.9,19.1,8.7,29.2,9.1
						C377.3,401.6,377.6,405.3,378.3,408.8z"/>
					<path fill="#A0CCBF" d="M373.4,410.9l0,0.3c-0.1,0-0.2,0.1-0.3,0.2c-0.2,3.4-0.1,7.4,0.5,10.8c-0.4,0-0.8,0.1-1.1,0.3
						c-12.3-2.1-24.3-4.7-35.9-9.6c-11.7-5-21.4-12-31.5-19.3c3.4-1.8,6.9-3.9,9.9-6.3c5.7,6.7,16.5,9.8,24,12.7
						c8,3.1,15.9,6.5,24,9.2C366.4,410.4,370,411.2,373.4,410.9z"/>
					<path fill="#A0CCBF" d="M348.2,418.6l-0.4,1.4c-0.1,0-0.3,0-0.4,0.1c-2.2,4.6-4.4,9.4-6,14.3h0c-3.9-1.2-7.7-2.7-11.5-4.4
						c2.8-4.8,5.2-10.1,7.4-15.3c0,0,0-0.1,0-0.1C340.8,416.1,344.5,417.5,348.2,418.6z"/>
					<path fill="#A0CCBF" d="M336.7,414.4C336.7,414.4,336.7,414.4,336.7,414.4c-2.6,5-5.2,10.2-7.2,15.5c-0.5-0.2-1-0.4-1.4-0.7
						c-2.3-1.1-4.7-2.2-7.1-3.3c2.8-4.7,5.5-10.1,7.3-15.2c0,0,0-0.1,0-0.1c2.6,1.3,5.3,2.5,7.9,3.6
						C336.4,414.2,336.5,414.3,336.7,414.4z"/>
					<path fill="#A0CCBF" d="M327.7,410.3c0,0-0.1,0.1-0.1,0.1c-2.8,4.7-5.2,10.1-7.1,15.3c-2.9-1.4-5.7-2.8-8.5-4.4
						c3-4.8,5.4-10.1,7.8-15.2C322.4,407.5,325,409,327.7,410.3z"/>
				</g>
			</g>
		</g>
	</g>
	<g>
		<g>
			<g id="XMLID_10_">
				<g>
					<path fill="#DF5765" d="M134.2,526.7c6.6,10,12,20,16.8,31c-3.3,1.3-6.6,2.8-9.8,4.3c-1,0.5-1.9,1-3,1.5
						c-4-10.2-8.5-20.2-12.9-30.3c-0.2-0.3-0.8-0.1-0.6,0.3c4.2,10.1,8.4,20.3,12.9,30.3c-3.5,1.9-7.2,3.9-10.8,4
						c-1.7,0.1-3.2-0.4-4.7-0.9c-1.6-7.6-4.1-15.1-6.3-22.5c-0.1-0.4-0.8-0.2-0.6,0.2c2,7.4,3.8,15,6.4,22.2
						c-1.7-0.6-3.3-1.3-5.1-1.3c-2.7-0.1-4.6,1.2-6.8,2.8c-2.7,2-3.9,3.3-7.7,3.4c-2.1,0.1-4.2-0.6-6.2-0.8
						c-1.8-0.2-3.5-0.1-5.2,0.1c-0.2-9-1.3-18-2-27c0-0.5-0.8-0.5-0.8,0c0.6,9,0.9,18.1,2.1,27.1c-1.5,0.2-3.1,0.6-4.6,1.1
						c-8.4,2.5-23.8,8.3-26.5-5c0-0.3-0.3-0.4-0.5-0.3c3.1-13.3,5.8-26.6,8.6-40c2.9-13.6,6.5-27.4,8.4-41.2
						c0.1-0.4-0.3-0.7-0.7-0.7c1.9-10.4-13.5-20.7-3.5-30.5c0.5-0.5-0.1-1.3-0.7-1.1c-1.4-4.3-3.1-8.8-5.1-12.9
						c-0.1-0.2-0.2-0.3-0.3-0.3l0.1-0.3c2.6,1.1,4.9,2.4,6.7,4.7c1.8,2.3,2.1,4.8,2.9,7.4c0.1,0.3,0.6,0.4,0.7,0
						c0-0.1,0.1-0.2,0.1-0.3c4.2,0.2,7.9,1.1,12,1.9c0.1,0.1,0.2,0.2,0.4,0.1c2-0.8,4-1.8,5.9-2.8c2.2-1,4.6-1.9,6.5-3.4
						c0.3-0.3,0.3-0.8,0.1-1c2-3.8,0.2-9.7,5.6-10.7c-1.6,3.5-1,6.9,0.4,10.5c2.4,6,5.4,11.1,5.7,17.8c0.3,5.5-0.4,11,0.3,16.4
						c0.7,5.6,2.4,11.1,4.6,16.4C121.4,507.6,127.9,517.1,134.2,526.7z M106.5,570.1c0.1,0.2,0.4,0.2,0.4-0.1
						c-1.3-9.8-3.3-19.5-5.2-29.1c-0.1-0.4-0.7-0.2-0.6,0.2C102.7,550.8,104.2,560.6,106.5,570.1z M77.3,543.6
						c0.1-0.5-0.8-0.6-0.9-0.1c-1.5,10.1-3.5,20.7-3.6,30.9c0,0.2,0.3,0.3,0.3,0C75.6,564.5,76.2,553.8,77.3,543.6z"/>
				</g>
			</g>
		</g>
	</g>
	<g>
		<g>
			<g id="XMLID_48_">
				<g>
					<path fill="#008B9E" d="M717.3,643.2c-3.3,3.9-7.3,6.7-11.6,9.4c-0.1,0.1-0.1,0.2,0,0.3l-0.3,0.2c-8.3-10.2-5.5-21-1.6-32.3
						c3.9,7,12.9,11,20.5,8.3C722.6,634.2,720.8,639,717.3,643.2z"/>
					<path fill="#008B9E" d="M693.4,754.2l0,0.1c-7.8-2.5-15.6-4.7-23.1-7.8c-7.7-3.2-14.6-7.8-22.1-11.3c0,0-0.1,0-0.1,0
						c-5.5-34.4,37.5-54.3,34.5-88c0.1-0.1,0.3-0.2,0.4-0.3c0.6-0.5,1.2-1,1.7-1.7c0.3-0.4-0.3-0.9-0.6-0.6c-0.6,0.4-1,0.9-1.5,1.3
						c0-0.1,0-0.1,0-0.1c-0.1-0.5-0.8-0.5-0.8,0c0,0.3,0,0.6,0,0.9c-0.1,0.1-0.1,0.1-0.2,0.2c-0.2,0.2-0.3,0.5-0.5,0.7
						c-2.3-1.4-4.5-2.8-6.5-4.6c-2-1.8-3.2-4-4.9-6.1c1.9-2.9,3.7-5.8,6.2-8.3c2.7-2.8,5.8-4.8,8.9-7.1c6.1-1.2,11.9-2.1,18.1-2.7
						c0,0.1,0,0.2,0,0.3c0.1,0.2,0.2,0.4,0.3,0.6c-4.3,10.3-8.9,26.3,1.7,34.3c0.5,0.3,0.9-0.4,0.6-0.7c0,0,0-0.1-0.1-0.1l0.3-0.2
						c0,0,0.1,0.1,0.2,0c9.8-3.3,18.3-13.8,19.6-24c0-0.2,0-0.3-0.1-0.3c0.3-0.2,0.7-0.3,1-0.5c0.1,0,0.2-0.1,0.2-0.2
						c2.8,1.7,5.5,3.4,7.9,5.7c2.8,2.7,4.7,5.8,6.9,8.9l0,0c0.1,6.5-0.2,12.9-0.2,19.4c-4.4,1.3-8.7,2.3-13.3,2.7
						c-0.1,0-0.2,0-0.3,0.1c-0.5-1.5-1.2-3-2-4.4c-0.1-0.1-0.2-0.2-0.4-0.2c0.2-0.3,0.4-0.6,0.6-1c0.2-0.3-0.3-0.6-0.5-0.4
						c-10.6,11.7-12.4,29.5-14.2,44.5c-2.2,17.8-4.4,37-17.9,50.3C693,753.8,693.2,754.1,693.4,754.2z"/>
				</g>
			</g>
		</g>
	</g>
	<g>
		<g>
			<g id="XMLID_36_">
				<g>
					<path fill="#DF5765" d="M505.2,305.8c-0.8-3.8-1.8-8.1-3.4-11.6c0.5-1.1,2-1.2,3-0.6c0.9,0.5,1.3,1.6,1.5,2.5
						c0.3,1.4,0.2,2.9,0.4,4.3c0.2,1.3,0.6,2.8,1.6,3.7c-0.1,0.1-0.1,0.3,0.1,0.4c2.3,1,4.6,1.9,6.9,3c2.2,1.1,4.2,2.7,6.5,3.8
						c0.1,0.1,0.2,0.1,0.4,0c1.4,13.2,4.2,26.5,6.8,39.5c0.1,0.6,1,0.3,0.9-0.3c-2-13.4-3.9-27.2-7.1-40.4c1.9-1.6,3.6-3.4,5.4-5.2
						c1.3-1.3,2.9-2.6,4.1-4.1c0.1,0.2,0.3,0.1,0.3-0.1c0-0.1,0-0.3,0-0.4c0.1-0.2,0.3-0.4,0.4-0.6c0.2-0.3,0-0.6-0.3-0.7
						c0.1-1.6,0.1-3.3,0.1-4.9c0-1.6,0.1-3.3,0-4.9c0,0,0,0,0,0c1.4-2.2,4-0.4,4.5,1.4c0.4,1.6,0,3.3-0.2,4.9
						c-0.2,1.7-0.3,3.3,0.4,4.8c0,0,0,0-0.1,0c-0.3-0.1-0.5,0.3-0.3,0.5c12.6,9.3,8.9,23.4,6.5,36.5c-0.1,0.4-0.2,0.8-0.2,1.2
						c-0.1,0.5,0.5,0.7,0.8,0.4c3.7,9.6,8.5,19,12.9,28.3c-7.8,2-16.9,9.1-18.8,17c-1,0.4-2,0.7-3.2,0.9c-1,0.1-2.1-0.1-3.1,0.2
						c-0.1,0-0.2,0.1-0.2,0.2c0-0.1,0-0.2,0-0.3c-4.1-7-13.8-11.4-21.8-9c-0.2-4.9-0.8-9.7-0.4-14.7c0.5-5.7,2-10.9,3.5-16.3
						c0.3,0.1,0.6-0.2,0.4-0.4c-9.2-12-11.2-24.1-7-38.6C506.3,305.8,505.5,305.4,505.2,305.8z"/>
				</g>
			</g>
		</g>
	</g>
	<g>
		<g>
			<g id="XMLID_21_">
				<g>
					<path fill="#A0CCBF" d="M351.1,500.8c0.9,3.5,1.6,7.3,3.2,10.6c0,0,0,0,0,0c-0.3,0.2-0.1,0.7,0.2,0.6c6.3-2,11,0.2,15.2,4.9
						c0,0,0,0,0,0c0,0,0,0,0,0.1c0,0.2,0.3,0.4,0.4,0.2c0,0,0-0.1,0.1-0.1c0.3-0.1,0.6-0.3,0.4-0.7c0,0,0,0,0-0.1
						c1.1-2,2.3-3.9,4.1-5.4c2.1-1.8,4.5-2.4,6.9-3.5c0.4-0.2,0.3-0.7,0.1-0.9c0.3-3.8,0.4-7.9-0.1-11.7c0-0.3-0.2-0.4-0.4-0.4v-0.1
						c2.8-0.1,4,2.6,4.1,5.1c0.1,1.5-0.3,3-0.3,4.5c0,1.5,0.2,2.9,0.9,4.1c-0.2,0.1-0.2,0.4,0.1,0.5c0.1,0,0.2,0,0.3,0.1
						c0.2,0.2,0.3,0.4,0.5,0.6c0.3,0.3,0.7,0.1,0.8-0.3c6.8,2.2,5.3,11,4.3,16.7c-0.8,4.3-0.8,8.5,0,12.9c1.8,9.7,7.1,19.2,13.1,27
						c-13.7,12.9-32.6,16.5-50.2,10.6c-1.7-5.9-0.9-11.1,0.5-17.3c1-4.7,2-9.5,0.8-14.2c-2.3-9.4-14.7-21.7-4.4-30.4
						c0.3-0.2,0-0.7-0.3-0.6c0,0,0-0.1,0-0.1c-0.4-2.2-1.4-4.3-2.1-6.4c-0.7-1.9-1.2-3.8-2.1-5.6l0,0c0,0.1,0.1,0.2,0.3,0.1
						C348.5,501.3,349.8,501,351.1,500.8z"/>
				</g>
			</g>
		</g>
	</g>
	<g>
		<g>
			<g id="XMLID_12_">
				<g>
					<path fill="#DF5765" d="M253.5,498.1c2.7-6.8,5.9-13.6,7.9-20.6c9.2,3.9,22.4,7.8,30.9,0.4c0.1-0.1,0.1-0.1,0.1-0.2l0.6,0.1
						c0,0.1,0,0.1,0,0.2c2.3,7.3,5.1,14.4,7.8,21.5c2.2,5.8,4,12.1,6.7,17.7c-0.1,0-0.2,0-0.3,0c-4.3,1.9-8.3,4.4-12.8,5.9
						c-4.1,1.4-8.2,2.3-12.5,2.8c0,0,0,0,0-0.1c-0.4-2.5-1.3-5-2-7.5c-0.5-1.8-0.9-3.6-1.6-5.3c0.1-0.3,0.2-0.7,0.2-1
						c0.1-0.5-0.6-0.7-0.8-0.2c0,0,0,0,0,0c-0.1-0.1-0.4,0-0.4,0.2c0,0.2,0,0.4,0.1,0.6c-1.5,4.4-2.6,9.2-3.6,13.7c0,0,0,0,0,0
						c-0.1-0.1-0.2-0.1-0.4-0.1c-10.7-0.8-18.8-4.2-27.2-10.7c0,0-0.1-0.1-0.1-0.1C248.9,509.8,251.2,503.9,253.5,498.1z"/>
				</g>
			</g>
		</g>
	</g>
	<g>
		<g>
			<g id="XMLID_3_">
				<g>
					<path fill="#A0CCBF" d="M246.4,45.9c0.1-0.1,0.1-0.1,0.2-0.2l0.6,0.1c0,0.1,0,0.1,0,0.2c2.3,7.3,5.1,14.4,7.8,21.5
						c2.2,5.8,4,12.1,6.7,17.7c-0.1,0-0.2,0-0.3,0.1c-4.3,1.9-8.3,4.3-12.8,5.9c-4.1,1.4-8.2,2.2-12.5,2.8c0,0,0-0.1,0-0.1
						c-0.4-2.5-1.3-5-2-7.5c-0.5-1.8-0.9-3.6-1.6-5.3c0.1-0.3,0.1-0.7,0.2-1c0.1-0.5-0.6-0.7-0.8-0.2c0,0,0,0,0,0
						c-0.1-0.1-0.4,0-0.4,0.2c0,0.2,0,0.5,0.1,0.7c-1.5,4.4-2.6,9.1-3.5,13.7c0,0,0,0,0,0c-0.1-0.1-0.2-0.1-0.3-0.1
						c-10.7-0.8-18.8-4.2-27.2-10.7c-0.1,0-0.1-0.1-0.1-0.1c2.5-5.7,4.8-11.6,7.1-17.4c2.7-6.8,5.9-13.6,7.9-20.6
						C224.7,49.4,238,53.4,246.4,45.9z"/>
				</g>
			</g>
		</g>
	</g>
	<g>
		<g>
			<g id="XMLID_20_">
				<g>
					<path fill="#DF5765" d="M452,554.1c5.3,2.7,11.3,4.1,16.9,5.8c6.1,1.9,12.1,3.9,18.2,5.7c-0.1,0.3-0.3,0.6-0.4,0.9
						c-0.1,0-0.1,0-0.1,0.1c-0.1,0.3-0.4,0.5-0.5,0.8c-0.1,0.3-0.2,0.5-0.3,0.8c-0.1,0.3-0.3,0.7-0.4,1c-12-2.8-23.2-6.7-34.8-10.9
						c0,0,0,0,0,0c0.6-1.4,1-2.8,1.4-4.2c0-0.1,0-0.1,0-0.2l0,0C451.9,554,452,554,452,554.1z"/>
					<path fill="#DF5765" d="M451.8,641.4c2.6-7.6,4.8-15.3,7-23c0.1-0.4-0.5-0.5-0.6-0.2c-2.4,7.6-4.8,15.3-6.8,23.1
						C451.4,641.5,451.7,641.6,451.8,641.4z M450.4,558.8c10.7,5.8,23.2,9.6,35.2,11.8c0.2,0,0.3,0,0.5-0.1c0,0,0,0.1,0,0.1
						c-0.2,13.3-0.4,26.3-2.7,39.4c-2.2,12.5-5.8,24.4-10.1,36.3c-3.8,1.3-7.9,0-10.5-3c4.4-11.1,7-23.2,9.1-34.9
						c0.1-0.5-0.7-0.8-0.8-0.2c-2.5,11.8-5.9,23.2-8.9,34.8c-0.2,0.1-0.4,0.4-0.3,0.6c-3.1,0.3-6.3,0-9.2-1.3c-2.5-1.2-4.2-3-6-5
						c0.1-0.1,0.2-0.2,0.3-0.3c0.1-0.1,0-0.3-0.2-0.2s-0.3,0.2-0.4,0.3c-0.2-0.2-0.4-0.4-0.6-0.7c-0.3-0.4-1,0-0.9,0.5
						c0.1,0.3,0.2,0.6,0.4,0.9l-0.2,0.1c0-0.2-0.2-0.3-0.4-0.2c-1.1,0.3-2.1,0.4-3,0.5c6.9-15.8,11.9-32.6,17.5-48.8
						c0.1-0.4-0.5-0.6-0.6-0.2c-5.9,16.2-12.6,32.4-17.2,49c-3.8,0-6.5-1.9-9.4-4.2c6.3-12.2,10.3-26,15.1-38.7
						c0.1-0.4-0.5-0.6-0.6-0.2c-5,12.6-11.3,25.5-14.8,38.6c-1-0.9-2.1-1.8-3.2-2.7c-0.2-0.2-0.4-0.2-0.6-0.1
						c-2.2-0.2-4-0.6-5.7-1.4c5.7-11.5,10.3-23.7,15.2-35.6c0.1-0.4-0.5-0.6-0.6-0.3c-5.1,11.7-10.8,23.5-15.1,35.6
						c-2.4-1.2-4.4-3.1-6.1-5.7l0.4-0.3c0.1,0.2,0.3,0.2,0.4,0c2.6-5.3,4.3-11,6.7-16.5c2.5-5.7,5.2-11.4,8.1-16.9
						c5.6-10.8,12.1-21.1,19.3-31C450.3,559,450.3,558.9,450.4,558.8C450.4,558.8,450.4,558.8,450.4,558.8z"/>
				</g>
			</g>
		</g>
	</g>
	<g>
		<g>
			<g id="XMLID_40_">
				<g>
					<path fill="#FCC79B" d="M654.5,58.1c1.6,9.2,9,24.7,21.1,19.6c10.5-4.4,7.3-22.8,2.8-31.3c0.9,0,1.8-0.4,2.7-0.4
						c1,0,2,0.2,3,0.5c0.5,5.9,4.3,11.2,7.8,15.7c3.6,4.8,7.6,9.6,10.1,15.2c-3.2,15.9,10,29.5,17.6,42.1
						c9.9,16.3,16.1,34.5,22.2,52.5c0,0-0.1,0-0.1,0.1c-14.9,10.4-31.5,16.4-49.3,19.6c-7-14.3-14-28.6-18-44.1
						c-2-7.8-2.9-15.7-3.8-23.7c-0.6-5.2-1.4-10.2-3.5-15c-0.2-0.5-0.4-1-0.7-1.4c0,0,0,0,0,0c-0.2-0.3-0.4-0.7-0.5-1
						c0-0.1-0.1-0.1-0.2-0.1c-2.2-3-5.5-5.2-7.8-8.5c-4.3-6.3-3.8-14-3.2-21.3c0.2-0.1,0.3-0.3,0.3-0.6c-0.1-0.2-0.1-0.4-0.2-0.7
						c0.1-0.7,0.1-1.3,0.2-2c0-0.3-0.5-0.4-0.5-0.1c0,0.2-0.1,0.4-0.1,0.5c-1.4-4.3-3.5-8.6-5.3-12.6c0.9-0.4,1.8-0.9,2.6-1.5
						c0.9-0.6,2-1.1,2.8-2l0.2,0.2C654.5,58,654.5,58,654.5,58.1z"/>
				</g>
			</g>
		</g>
	</g>
</g>
</svg>
